<?xml version="1.0" encoding="utf-8"?>
<!-- Generator: Adobe Illustrator 16.0.0, SVG Export Plug-In . SVG Version: 6.00 Build 0)  -->
<!DOCTYPE svg PUBLIC "-//W3C//DTD SVG 1.1//EN" "http://www.w3.org/Graphics/SVG/1.1/DTD/svg11.dtd">
<svg version="1.1" id="레이어_1" xmlns="http://www.w3.org/2000/svg" xmlns:xlink="http://www.w3.org/1999/xlink" x="0px"
	 y="0px" width="47px" height="16px" viewBox="0 0 47 16" enable-background="new 0 0 47 16" xml:space="preserve">
<g>
	<defs>
		<rect id="SVGID_1_" width="47" height="16"/>
	</defs>
	<clipPath id="SVGID_2_">
		<use xlink:href="#SVGID_1_"  overflow="visible"/>
	</clipPath>
	<path clip-path="url(#SVGID_2_)" fill="#FFFFFF" d="M5.442,5.085c0.225-0.736,0.336-1.537,0.369-2.369H1.457V1.228h5.138
		c0.784,0,1.184,0.448,1.184,1.312c0,0.992-0.128,1.937-0.384,2.833H9.06v-4.37h1.84v13.75H9.06V6.909H6.803
		C6.659,7.197,6.515,7.485,6.354,7.742c-1.12,1.872-2.865,3.329-5.218,4.354v-1.553c1.633-0.992,2.882-2.321,3.73-4.002H1.457V5.085
		H5.442z M12.037,1.003h1.873v13.75h-1.873V1.003z"/>
	<path clip-path="url(#SVGID_2_)" fill="#FFFFFF" d="M24.468,2.268v9.284H19.33c-1.697,0-2.545-0.833-2.545-2.529V1.228h6.642
		C24.115,1.228,24.468,1.579,24.468,2.268 M22.595,2.716h-3.922V8.91c0,0.769,0.336,1.153,1.041,1.153h2.881V2.716z M26.82,1.003
		h1.921v13.75H26.82V1.003z"/>
	<path clip-path="url(#SVGID_2_)" fill="#FFFFFF" d="M37.17,3.676c0.16-0.368,0.273-0.752,0.32-1.152H32V1.067h6.419
		c0.801,0,1.185,0.511,1.12,1.504c-0.096,1.505-0.8,2.785-2.096,3.841c-1.457,1.185-3.378,1.809-5.779,1.889v-1.44
		c1.905-0.144,3.394-0.737,4.45-1.761H32V3.676H37.17z M43.51,12.399h-8.452v0.177c0,0.464,0.288,0.688,0.864,0.688h7.619v1.457
		h-7.844c-1.696,0-2.544-0.769-2.544-2.337v-1.409h8.451v-0.815h-8.451V8.718h9.956c0.256,0,0.4,0.145,0.4,0.4V12.399z M43.51,3.725
		h2.129v1.488H43.51v2.753h-1.905V1.002h1.905V3.725z"/>
</g>
</svg>
