<?xml version="1.0" encoding="utf-8"?>
<!-- Generator: Adobe Illustrator 16.0.3, SVG Export Plug-In . SVG Version: 6.00 Build 0)  -->
<!DOCTYPE svg PUBLIC "-//W3C//DTD SVG 1.1//EN" "http://www.w3.org/Graphics/SVG/1.1/DTD/svg11.dtd">
<svg version="1.1" id="레이어_1" xmlns="http://www.w3.org/2000/svg" xmlns:xlink="http://www.w3.org/1999/xlink" x="0px"
	 y="0px" width="168.443px" height="38.828px" viewBox="0 0 168.443 38.828" enable-background="new 0 0 168.443 38.828"
	 xml:space="preserve">
<g>
	<path fill="#FFFFFF" d="M35.385,22.615H23.279v7.201h16.697v5.08H0v-5.08h16.654v-7.201h-5.037c-5.124,0-7.687-2.25-7.687-6.757
		V0.971h31.098v4.993H10.468v9.233c0,1.62,0.869,2.43,2.606,2.43h22.311V22.615z"/>
	<path fill="#FFFFFF" d="M59.547,0.576v5.742c0,6.657,1.029,11.457,3.095,14.401c1.736,2.473,3.986,4.166,6.757,5.078v5.037
		c-4.684-0.854-8.496-3.033-11.441-6.54c-0.588-0.702-1.133-1.483-1.633-2.34c-0.5,0.856-1.047,1.638-1.635,2.34
		c-2.945,3.507-6.763,5.687-11.441,6.54v-5.037c2.768-0.912,5.021-2.605,6.759-5.078c2.061-2.945,3.095-7.745,3.095-14.401V0.576
		H59.547z M72.846,38.83V0h6.536v38.83H72.846z"/>
	<path fill="#FFFFFF" d="M95.505,15.595c1.62-3.062,2.548-6.391,2.784-9.987H86.317v-4.99h14.929c2.328,0,3.477,1.357,3.446,4.063
		c-0.029,5.275-1.367,10.046-4.018,14.316c-3.417,5.507-8.496,9.526-15.24,12.056v-5.211C89.851,23.34,93.209,19.924,95.505,15.595z
		 M115.78,0h6.139v38.83h-6.139V17.803h-2.738V38.83h-6.052V0h6.052v12.723h2.738V0z"/>
	<path fill="#FFFFFF" d="M151.475,19.523h-15.018c-4.949,0-7.423-2.101-7.423-6.315V0.31h6.451v5.036h9.585V0.31h6.403
		L151.475,19.523L151.475,19.523z M162.875,32.337h-23.548v0.396c0,0.914,0.796,1.371,2.387,1.371h21.249v4.638h-22.791
		c-4.891,0-7.335-2.267-7.335-6.802v-4.152h23.542V26.15h-23.542v-4.594h28.892c0.762,0,1.146,0.396,1.146,1.192V32.337
		L162.875,32.337z M145.071,14.931V9.895h-9.585v2.606c0,1.62,0.854,2.43,2.563,2.43H145.071z M162.875,7.511h5.568v4.99h-5.568
		v7.423h-6.496V0h6.496V7.511z"/>
</g>
</svg>
