<?xml version="1.0" encoding="utf-8"?>
<!-- Generator: Adobe Illustrator 24.0.1, SVG Export Plug-In . SVG Version: 6.00 Build 0)  -->
<svg version="1.1" id="Layer_1" xmlns="http://www.w3.org/2000/svg" xmlns:xlink="http://www.w3.org/1999/xlink" x="0px" y="0px"
	 viewBox="0 0 113.37 26.24" style="enable-background:new 0 0 113.37 26.24;" xml:space="preserve">
<g>
	<path d="M16.15,6.15H0.01V3.57h16.14V6.15z M8.08,17.49c-2.04,0-3.72-0.51-4.98-1.56c-1.29-1.02-1.92-2.25-1.92-3.69
		c0-1.41,0.63-2.64,1.92-3.69c1.26-1.02,2.94-1.53,4.98-1.53s3.69,0.51,4.98,1.53c1.26,1.05,1.92,2.28,1.92,3.69
		c0,1.44-0.66,2.67-1.92,3.69C11.77,16.98,10.12,17.49,8.08,17.49z M9.31,23.43h13.95v2.76H8.44c-3.21,0-4.8-1.47-4.8-4.47v-2.88
		h3.6v2.46C7.24,22.74,7.93,23.43,9.31,23.43z M3.94,0.03h8.28v2.61H3.94V0.03z M8.08,14.97c0.93,0,1.74-0.24,2.43-0.78
		c0.66-0.51,0.99-1.17,0.99-1.95c0-0.75-0.33-1.38-0.99-1.92c-0.69-0.51-1.5-0.78-2.43-0.78c-0.96,0-1.74,0.27-2.4,0.78
		c-0.69,0.54-1.02,1.17-1.02,1.92c0,0.78,0.33,1.44,1.02,1.95C6.34,14.73,7.12,14.97,8.08,14.97z M23.14,7.08h3.72V9.9h-3.72v9.09
		h-3.57V0.48h3.57V7.08z"/>
	<path d="M36.22,17.34c-1.29-0.21-2.37-0.69-3.27-1.44c-1.26-1.02-1.86-2.22-1.86-3.66c0-1.41,0.63-2.64,1.92-3.69
		c1.26-1.02,2.94-1.53,4.98-1.53s3.69,0.51,4.98,1.53c1.26,1.05,1.92,2.28,1.92,3.69c0,1.44-0.63,2.64-1.86,3.66
		c-0.9,0.72-1.95,1.2-3.21,1.44v2.73h3.99c3.6,0,5.4-1.38,5.4-4.17V0.48h3.57v8.64h3.72v2.85h-3.72v14.28h-3.57v-4.83
		c-1.08,0.96-2.7,1.44-4.8,1.44H29.29v-2.79h6.93V17.34z M46,6.15H29.86V3.57H46V6.15z M33.85,0.03h8.28v2.61h-8.28V0.03z
		 M37.99,14.97c0.93,0,1.74-0.24,2.43-0.78c0.66-0.51,0.99-1.17,0.99-1.95c0-0.75-0.33-1.38-0.99-1.92
		c-0.69-0.51-1.5-0.78-2.43-0.78c-0.96,0-1.74,0.27-2.4,0.78c-0.69,0.54-1.02,1.17-1.02,1.92c0,0.78,0.33,1.44,1.02,1.95
		C36.25,14.73,37.03,14.97,37.99,14.97z"/>
	<path d="M85.24,18.33h-6.57v7.92h-3.6v-7.92h-6.03v7.92h-3.6v-7.92h-6.51v-2.85h26.31V18.33z M61.54,7.68h16.83V5.85
		c0-1.44-0.75-2.19-2.22-2.19H61.54V0.87h15.9c3,0,4.53,1.53,4.53,4.53v8.82h-3.6v-3.78H61.54V7.68z"/>
	<path d="M97.03,1.59c0,3.21,0.6,5.52,1.86,6.9c1.02,1.17,2.22,1.86,3.54,2.1v2.82c-2.28-0.3-4.23-1.2-5.91-2.76
		c-0.48-0.42-0.87-0.9-1.23-1.47c-0.36,0.57-0.78,1.05-1.23,1.47c-1.68,1.56-3.66,2.46-5.91,2.76v-2.82
		c1.32-0.24,2.49-0.93,3.54-2.1c1.23-1.38,1.86-3.69,1.86-6.9V0.81h3.48V1.59z M113.26,21.84H96.97v0.33c0,0.87,0.54,1.29,1.62,1.29
		h14.73v2.73H98.17c-3.18,0-4.77-1.44-4.77-4.38v-2.64h16.29v-1.53H93.4v-2.7h19.11c0.48,0,0.75,0.27,0.75,0.75V21.84z M104.17,0.48
		h3.45v13.05h-3.45V7.32h-4.14V4.53h4.14V0.48z M109.75,0.48h3.51v13.05h-3.51V0.48z"/>
</g>
</svg>
