<?xml version="1.0" encoding="utf-8"?>
<!-- Generator: Adobe Illustrator 24.0.1, SVG Export Plug-In . SVG Version: 6.00 Build 0)  -->
<svg version="1.1" id="Layer_1" xmlns="http://www.w3.org/2000/svg" xmlns:xlink="http://www.w3.org/1999/xlink" x="0px" y="0px"
	 viewBox="0 0 189.98 34.42" style="enable-background:new 0 0 189.98 34.42;" xml:space="preserve">
<g>
	<path d="M20.91,7.68H0.03V4.76h20.88V7.68z M10.47,22.96c-2.72,0-4.84-0.68-6.44-2.04c-1.6-1.32-2.4-2.92-2.4-4.8
		c0-1.84,0.8-3.48,2.4-4.84c1.6-1.36,3.72-2.04,6.44-2.04c2.68,0,4.84,0.68,6.44,2.04c1.6,1.36,2.4,3,2.4,4.84
		c0,1.88-0.8,3.48-2.4,4.8C15.31,22.28,13.15,22.96,10.47,22.96z M11.51,31.32h18.76v3.04H11.03c-4.16,0-6.2-1.84-6.2-5.56v-3.84
		h3.92v3.52C8.75,30.4,9.67,31.32,11.51,31.32z M5.23,0.05h10.48V3H5.23V0.05z M10.47,20.04c1.48,0,2.72-0.36,3.68-1.12
		c0.92-0.72,1.4-1.68,1.4-2.8c0-1.12-0.48-2.04-1.4-2.84c-0.96-0.72-2.2-1.12-3.68-1.12c-1.52,0-2.72,0.4-3.64,1.12
		c-0.96,0.8-1.44,1.72-1.44,2.84c0,1.12,0.48,2.08,1.44,2.8C7.75,19.68,8.95,20.04,10.47,20.04z M29.95,9.52h5.08v3.12h-5.08V25
		h-3.88V0.73h3.88V9.52z"/>
	<path d="M48.47,22.8c-1.76-0.24-3.24-0.88-4.44-1.88c-1.68-1.32-2.48-2.92-2.48-4.8c0-1.84,0.8-3.48,2.48-4.84
		c1.64-1.32,3.76-2,6.36-2c2.56,0,4.68,0.68,6.36,2c1.64,1.36,2.48,3,2.48,4.84c0,1.88-0.84,3.48-2.48,4.8
		c-1.24,1-2.68,1.6-4.36,1.84v4.08h5.48c5.12,0,7.72-2.04,7.72-6.16V0.73h3.88v11.52h5.08v3.16h-5.08v19.04h-3.88v-6.88
		c-1.28,1.6-3.56,2.36-6.92,2.36H38.91v-3.08h9.56V22.8z M60.75,7.76H39.87v-3h20.88V7.76z M45.15,0.05h10.48v3.04H45.15V0.05z
		 M50.39,20c1.36,0,2.56-0.36,3.6-1.16c0.96-0.72,1.48-1.64,1.48-2.72c0-1.04-0.52-1.96-1.48-2.76c-1.04-0.76-2.24-1.16-3.6-1.16
		c-1.4,0-2.6,0.4-3.56,1.16c-1.04,0.8-1.52,1.72-1.52,2.76c0,1.08,0.48,2,1.52,2.72C47.79,19.64,48.99,20,50.39,20z"/>
	<path d="M97.63,11.08v4h15.12v3.04H78.55v-3.04h15.08v-4H97.63z M97.63,0.93c0,2.28,1.4,4.28,4.2,6c2.56,1.6,5.36,2.48,8.48,2.56
		v2.88c-3.52,0-7.08-0.92-10.6-2.8c-1.76-0.92-3.12-1.96-4.08-3.16c-0.96,1.2-2.32,2.24-4.04,3.16c-3.56,1.88-7.08,2.8-10.6,2.8
		V9.48c3.08-0.08,5.92-0.96,8.48-2.56c2.8-1.72,4.2-3.72,4.2-6v-0.2h3.96V0.93z M82.75,29.2v-3.16h21.88v-2.4H82.75v-2.92h24.8
		c0.64,0,0.96,0.32,0.96,0.96v7.24H86.63v0.56c0,1.36,0.72,2,2.16,2h19.8v2.92H88.91C84.79,34.4,82.75,32.68,82.75,29.2z"/>
	<path d="M152.27,24.88h-15.12v9.56h-4v-9.56h-15.08v-3.16h34.19V24.88z M121.79,12.92V7.84h22.44V4.12h-22.44v-3h24.56
		c1.16,0,1.76,0.56,1.76,1.68v8h-22.44v1.8c0,1.52,0.72,2.24,2.16,2.24h20.64v3h-20.72C123.75,17.84,121.79,16.2,121.79,12.92z"/>
	<path d="M169.79,3.08c0,4.96,1.12,8.76,3.4,11.44c1.88,2.24,3.76,3.64,5.68,4.12v3.12c-2.72-0.44-5.36-1.92-7.92-4.4
		c-1.28-1.2-2.32-2.68-3.08-4.36c-0.8,1.68-1.8,3.16-3.08,4.36c-2.6,2.48-5.24,3.96-7.92,4.4v-3.12c1.88-0.48,3.76-1.88,5.68-4.12
		c2.24-2.68,3.4-6.48,3.4-11.44V1.25h3.84V3.08z M170.87,31.28h18.6v3.08h-19.08c-4.16,0-6.2-1.88-6.2-5.64v-5.24h3.92v4.96
		C168.11,30.36,169.03,31.28,170.87,31.28z M185.19,0.73h3.88V25h-3.88V14.84h-8.96v-3h8.96v-4h-8.96v-3h8.96V0.73z"/>
</g>
</svg>
