<?xml version="1.0" encoding="utf-8"?>
<!-- Generator: Adobe Illustrator 24.0.1, SVG Export Plug-In . SVG Version: 6.00 Build 0)  -->
<svg version="1.1" id="Layer_1" xmlns="http://www.w3.org/2000/svg" xmlns:xlink="http://www.w3.org/1999/xlink" x="0px" y="0px"
	 viewBox="0 0 171.63 26.51" style="enable-background:new 0 0 171.63 26.51;" xml:space="preserve">
<g>
	<path d="M16.15,6.15H0.01V3.57h16.14V6.15z M8.08,17.49c-2.04,0-3.72-0.51-4.98-1.56c-1.29-1.02-1.92-2.25-1.92-3.69
		c0-1.41,0.63-2.64,1.92-3.69c1.26-1.02,2.94-1.53,4.98-1.53s3.69,0.51,4.98,1.53c1.26,1.05,1.92,2.28,1.92,3.69
		c0,1.44-0.66,2.67-1.92,3.69C11.77,16.98,10.12,17.49,8.08,17.49z M9.31,23.43h13.95v2.76H8.44c-3.21,0-4.8-1.47-4.8-4.47v-2.88
		h3.6v2.46C7.24,22.74,7.93,23.43,9.31,23.43z M3.94,0.03h8.28v2.61H3.94V0.03z M8.08,14.97c0.93,0,1.74-0.24,2.43-0.78
		c0.66-0.51,0.99-1.17,0.99-1.95c0-0.75-0.33-1.38-0.99-1.92c-0.69-0.51-1.5-0.78-2.43-0.78c-0.96,0-1.74,0.27-2.4,0.78
		c-0.69,0.54-1.02,1.17-1.02,1.92c0,0.78,0.33,1.44,1.02,1.95C6.34,14.73,7.12,14.97,8.08,14.97z M23.14,7.08h3.72V9.9h-3.72v9.09
		h-3.57V0.48h3.57V7.08z"/>
	<path d="M36.22,17.34c-1.29-0.21-2.37-0.69-3.27-1.44c-1.26-1.02-1.86-2.22-1.86-3.66c0-1.41,0.63-2.64,1.92-3.69
		c1.26-1.02,2.94-1.53,4.98-1.53s3.69,0.51,4.98,1.53c1.26,1.05,1.92,2.28,1.92,3.69c0,1.44-0.63,2.64-1.86,3.66
		c-0.9,0.72-1.95,1.2-3.21,1.44v2.73h3.99c3.6,0,5.4-1.38,5.4-4.17V0.48h3.57v8.64h3.72v2.85h-3.72v14.28h-3.57v-4.83
		c-1.08,0.96-2.7,1.44-4.8,1.44H29.29v-2.79h6.93V17.34z M46,6.15H29.86V3.57H46V6.15z M33.85,0.03h8.28v2.61h-8.28V0.03z
		 M37.99,14.97c0.93,0,1.74-0.24,2.43-0.78c0.66-0.51,0.99-1.17,0.99-1.95c0-0.75-0.33-1.38-0.99-1.92
		c-0.69-0.51-1.5-0.78-2.43-0.78c-0.96,0-1.74,0.27-2.4,0.78c-0.69,0.54-1.02,1.17-1.02,1.92c0,0.78,0.33,1.44,1.02,1.95
		C36.25,14.73,37.03,14.97,37.99,14.97z"/>
	<path d="M75.28,6.66h-6c0.03,1.68,0.75,3.12,2.13,4.35c1.35,1.2,2.91,1.89,4.68,2.07v2.7c-2.64-0.12-5.01-1.02-7.11-2.64
		c-0.57-0.42-1.05-0.9-1.47-1.41c-0.42,0.51-0.93,0.99-1.47,1.41c-2.1,1.62-4.47,2.52-7.11,2.64v-2.7c1.74-0.18,3.3-0.87,4.68-2.07
		c1.38-1.23,2.07-2.67,2.13-4.35h-6.3V3.93h15.84V6.66z M63.04,0.03h8.94v2.73h-8.94V0.03z M83.2,19.14v7.05H67.93
		c-2.88,0-4.29-1.29-4.29-3.87v-5.1h17.58C82.54,17.22,83.2,17.88,83.2,19.14z M79.63,19.95H67.21v2.1c0,0.96,0.48,1.41,1.47,1.41
		h10.95V19.95z M79.63,10.74h-5.46V7.95h5.46V0.48h3.57v15.45h-3.57V10.74z"/>
	<path d="M107.59,14.34c-0.93,1.11-2.64,1.65-5.16,1.65h-8.55c-3.18,0-4.77-1.56-4.77-4.74V0.9h13.11v2.73h-9.57v7.47
		c0,1.44,0.63,2.16,1.95,2.16h7.23c3.84,0,5.76-1.38,5.76-4.17V0.48h3.57v6.57h3.78V9.9h-3.78v9.09h-3.57V14.34z M97.66,23.4h13.95
		v2.79H96.79c-3.21,0-4.8-1.47-4.8-4.47v-3.99h3.6v3.54C95.59,22.71,96.28,23.4,97.66,23.4z"/>
	<path d="M143.68,20.73v2.85h-26.31v-2.85h11.31v-5.34h3.66v5.34H143.68z M132.34,1.65c0,3.78,1.02,6.6,3.12,8.52
		c1.92,1.8,4.11,2.76,6.51,2.91v2.76c-3.3-0.09-6.21-1.17-8.79-3.21c-1.08-0.84-1.98-1.89-2.64-3.09c-0.72,1.2-1.59,2.25-2.67,3.09
		c-2.58,2.04-5.52,3.12-8.79,3.21v-2.76c2.4-0.15,4.56-1.11,6.51-2.91c2.07-1.92,3.12-4.74,3.12-8.52V0.84h3.63V1.65z"/>
	<path d="M151.9,4.83V3.69h-4.92V0.9h13.26v2.79h-4.89v1.14c0,4.17,0.57,7.29,1.77,9.39c0.9,1.65,2.1,2.88,3.6,3.69v3.03
		c-2.52-0.93-4.56-2.52-6.12-4.74c-0.36-0.51-0.69-1.08-0.96-1.68c-0.3,0.6-0.63,1.17-0.99,1.68c-1.56,2.22-3.6,3.81-6.12,4.74
		v-3.03c1.47-0.81,2.67-2.04,3.6-3.69C151.3,12.12,151.9,9,151.9,4.83z M168.19,0.48h3.51v25.77h-3.51V11.97h-2.52v14.28h-3.45V0.48
		h3.45v8.64h2.52V0.48z"/>
</g>
</svg>
