<?xml version="1.0" encoding="utf-8"?>
<!-- Generator: Adobe Illustrator 24.0.1, SVG Export Plug-In . SVG Version: 6.00 Build 0)  -->
<svg version="1.1" id="Layer_1" xmlns="http://www.w3.org/2000/svg" xmlns:xlink="http://www.w3.org/1999/xlink" x="0px" y="0px"
	 viewBox="0 0 190.44 35.03" style="enable-background:new 0 0 190.44 35.03;" xml:space="preserve">
<g>
	<path d="M21.52,8.24H0.01V4.8h21.52V8.24z M10.76,23.36c-2.72,0-4.96-0.68-6.64-2.08c-1.72-1.36-2.56-3-2.56-4.92
		c0-1.88,0.84-3.52,2.56-4.92C5.8,10.08,8.04,9.4,10.76,9.4c2.72,0,4.92,0.68,6.64,2.04c1.68,1.4,2.56,3.04,2.56,4.92
		c0,1.92-0.88,3.56-2.56,4.92C15.68,22.68,13.48,23.36,10.76,23.36z M12.4,31.28H31v3.68H11.24c-4.28,0-6.4-1.96-6.4-5.96v-3.84h4.8
		v3.28C9.64,30.36,10.56,31.28,12.4,31.28z M5.24,0.08h11.04v3.48H5.24V0.08z M10.76,20c1.24,0,2.32-0.32,3.24-1.04
		c0.88-0.68,1.32-1.56,1.32-2.6c0-1-0.44-1.84-1.32-2.56c-0.92-0.68-2-1.04-3.24-1.04c-1.28,0-2.32,0.36-3.2,1.04
		c-0.92,0.72-1.36,1.56-1.36,2.56c0,1.04,0.44,1.92,1.36,2.6C8.44,19.68,9.48,20,10.76,20z M30.84,9.48h4.96v3.76h-4.96v12.12h-4.76
		V0.68h4.76V9.48z"/>
	<path d="M48.28,23.16c-1.72-0.28-3.16-0.92-4.36-1.92c-1.68-1.36-2.48-2.96-2.48-4.88c0-1.88,0.84-3.52,2.56-4.92
		c1.68-1.36,3.92-2.04,6.64-2.04c2.72,0,4.92,0.68,6.64,2.04c1.68,1.4,2.56,3.04,2.56,4.92c0,1.92-0.84,3.52-2.48,4.88
		c-1.2,0.96-2.6,1.6-4.28,1.92v3.64h5.32c4.8,0,7.2-1.84,7.2-5.56V0.68h4.76V12.2h4.96V16h-4.96v19.04H65.6V28.6
		c-1.44,1.28-3.6,1.92-6.4,1.92H39.04V26.8h9.24V23.16z M61.32,8.24H39.8V4.8h21.52V8.24z M45.12,0.08h11.04v3.48H45.12V0.08z
		 M50.64,20c1.24,0,2.32-0.32,3.24-1.04c0.88-0.68,1.32-1.56,1.32-2.6c0-1-0.44-1.84-1.32-2.56c-0.92-0.68-2-1.04-3.24-1.04
		c-1.28,0-2.32,0.36-3.2,1.04c-0.92,0.72-1.36,1.56-1.36,2.56c0,1.04,0.44,1.92,1.36,2.6C48.32,19.68,49.36,20,50.64,20z"/>
	<path d="M98.52,11.32v3.76h15.12v3.56H78.56v-3.56h15.08v-3.76H98.52z M98.52,0.88c0,2.4,1.32,4.4,4.04,6.08
		c2.48,1.56,5.36,2.4,8.64,2.48v3.48c-3.92,0-7.68-0.96-11.28-2.88c-1.6-0.8-2.84-1.76-3.8-2.88c-1,1.12-2.28,2.08-3.84,2.88
		c-3.6,1.92-7.36,2.88-11.28,2.88V9.44c3.28-0.08,6.16-0.92,8.64-2.48c2.68-1.68,4.04-3.68,4.04-6.08v-0.2h4.84V0.88z M82.76,29.4
		v-3.32h21.88V24.2H82.76v-3.44h25.64c0.64,0,1,0.36,1,1v7.72H87.52v0.36c0,1.12,0.72,1.64,2.16,1.64h19.8v3.48H89.12
		C84.88,34.96,82.76,33.12,82.76,29.4z"/>
	<path d="M153.16,25.48h-15.12v9.56h-4.88v-9.56h-15.08v-3.8h35.07V25.48z M121.8,13.2V7.8h22.44V4.72H121.8V1.08h25.4
		c1.2,0,1.8,0.6,1.8,1.8v8.52h-22.44v1.52c0,1.28,0.72,1.88,2.16,1.88h20.64v3.64h-21.4C123.84,18.44,121.8,16.72,121.8,13.2z"/>
	<path d="M170.68,3.36c0,4.88,1.08,8.6,3.32,11.24c1.76,2.08,3.6,3.44,5.6,4.08v3.72c-3.08-0.48-5.92-2.04-8.56-4.68
		c-1.08-1.04-2-2.28-2.72-3.64c-0.76,1.36-1.68,2.6-2.72,3.64c-2.64,2.64-5.52,4.2-8.56,4.68v-3.72c1.96-0.64,3.84-2,5.6-4.08
		c2.2-2.64,3.32-6.36,3.32-11.24V1.2h4.72V3.36z M171.76,31.24h18.6v3.72H170.6c-4.28,0-6.4-1.96-6.4-5.96v-5.32h4.8v4.72
		C169,30.32,169.92,31.24,171.76,31.24z M185.2,0.68h4.76v24.68h-4.76v-9.92h-8.56V11.8h8.56V8.44h-8.56V4.8h8.56V0.68z"/>
</g>
</svg>
