<?xml version="1.0" encoding="utf-8"?>
<!-- Generator: Adobe Illustrator 24.0.1, SVG Export Plug-In . SVG Version: 6.00 Build 0)  -->
<svg version="1.1" id="Layer_1" xmlns="http://www.w3.org/2000/svg" xmlns:xlink="http://www.w3.org/1999/xlink" x="0px" y="0px"
	 viewBox="0 0 112.61 25.85" style="enable-background:new 0 0 112.61 25.85;" xml:space="preserve">
<g>
	<path d="M15.65,5.74H-0.01V3.55h15.66V5.74z M7.82,17.2c-2.04,0-3.63-0.51-4.83-1.53c-1.2-0.99-1.8-2.19-1.8-3.6
		c0-1.38,0.6-2.61,1.8-3.63c1.2-1.02,2.79-1.53,4.83-1.53c2.01,0,3.63,0.51,4.83,1.53c1.2,1.02,1.8,2.25,1.8,3.63
		c0,1.41-0.6,2.61-1.8,3.6C11.45,16.69,9.83,17.2,7.82,17.2z M8.6,23.47h14.07v2.28H8.24c-3.12,0-4.65-1.38-4.65-4.17V18.7h2.94
		v2.64C6.53,22.78,7.22,23.47,8.6,23.47z M3.89,0.01h7.86v2.22H3.89V0.01z M7.82,15.01c1.11,0,2.04-0.27,2.76-0.84
		c0.69-0.54,1.05-1.26,1.05-2.1c0-0.84-0.36-1.53-1.05-2.13C9.86,9.4,8.93,9.1,7.82,9.1c-1.14,0-2.04,0.3-2.73,0.84
		c-0.72,0.6-1.08,1.29-1.08,2.13c0,0.84,0.36,1.56,1.08,2.1C5.78,14.74,6.68,15.01,7.82,15.01z M22.43,7.12h3.81v2.34h-3.81v9.27
		h-2.91V0.52h2.91V7.12z"/>
	<path d="M36.32,17.08c-1.32-0.18-2.43-0.66-3.33-1.41c-1.26-0.99-1.86-2.19-1.86-3.6c0-1.38,0.6-2.61,1.86-3.63
		c1.23-0.99,2.82-1.5,4.77-1.5c1.92,0,3.51,0.51,4.77,1.5c1.23,1.02,1.86,2.25,1.86,3.63c0,1.41-0.63,2.61-1.86,3.6
		c-0.93,0.75-2.01,1.2-3.27,1.38v3.06h4.11c3.84,0,5.79-1.53,5.79-4.62V0.52h2.91v8.64h3.81v2.37h-3.81v14.28h-2.91v-5.16
		c-0.96,1.2-2.67,1.77-5.19,1.77H29.15v-2.31h7.17V17.08z M45.53,5.8H29.87V3.55h15.66V5.8z M33.83,0.01h7.86v2.28h-7.86V0.01z
		 M37.76,14.98c1.02,0,1.92-0.27,2.7-0.87c0.72-0.54,1.11-1.23,1.11-2.04c0-0.78-0.39-1.47-1.11-2.07c-0.78-0.57-1.68-0.87-2.7-0.87
		c-1.05,0-1.95,0.3-2.67,0.87c-0.78,0.6-1.14,1.29-1.14,2.07c0,0.81,0.36,1.5,1.14,2.04C35.81,14.71,36.71,14.98,37.76,14.98z"/>
	<path d="M84.53,17.89h-6.57v7.92h-2.94v-7.92h-6.69v7.92h-2.94v-7.92h-6.51v-2.37h25.65V17.89z M61.46,7.72h16.86V5.41
		c0-1.44-0.75-2.19-2.22-2.19H61.46V0.91h15.42c2.91,0,4.38,1.47,4.38,4.38v8.55h-2.94V10H61.46V7.72z"/>
	<path d="M96.32,1.6c0,3.21,0.63,5.49,1.92,6.87c1.14,1.23,2.34,1.92,3.6,2.1v2.34c-1.98-0.21-3.78-1.05-5.43-2.55
		c-0.6-0.51-1.08-1.14-1.5-1.92c-0.42,0.78-0.93,1.41-1.5,1.92c-1.68,1.5-3.48,2.34-5.43,2.55v-2.34c1.26-0.18,2.46-0.87,3.6-2.1
		c1.26-1.38,1.92-3.66,1.92-6.87V0.85h2.82V1.6z M112.54,21.37H96.17v0.45c0,1.14,0.54,1.68,1.62,1.68h14.82v2.25H97.88
		c-3.09,0-4.62-1.35-4.62-4.08v-2.52h16.38v-2.01H93.26v-2.22h18.57c0.48,0,0.72,0.24,0.72,0.69V21.37z M104.08,0.52h2.85v12.75
		h-2.85V6.88h-4.32V4.57h4.32V0.52z M109.66,0.52h2.88v12.75h-2.88V0.52z"/>
</g>
</svg>
