<?xml version="1.0" encoding="utf-8"?>
<!-- Generator: Adobe Illustrator 16.0.0, SVG Export Plug-In . SVG Version: 6.00 Build 0)  -->
<!DOCTYPE svg PUBLIC "-//W3C//DTD SVG 1.1//EN" "http://www.w3.org/Graphics/SVG/1.1/DTD/svg11.dtd">
<svg version="1.1" id="레이어_1" xmlns="http://www.w3.org/2000/svg" xmlns:xlink="http://www.w3.org/1999/xlink" x="0px"
	 y="0px" width="62px" height="16px" viewBox="0 0 62 16" enable-background="new 0 0 62 16" xml:space="preserve">
<g>
	<defs>
		<rect id="SVGID_1_" width="62" height="16"/>
	</defs>
	<clipPath id="SVGID_2_">
		<use xlink:href="#SVGID_1_"  overflow="visible"/>
	</clipPath>
	<path clip-path="url(#SVGID_2_)" fill="#FFFFFF" d="M9.604,4.3H6.403c0.016,0.896,0.4,1.664,1.136,2.321
		c0.72,0.64,1.553,1.008,2.497,1.104v1.439C8.628,9.103,7.363,8.622,6.243,7.757c-0.304-0.224-0.561-0.48-0.785-0.752
		C5.234,7.277,4.962,7.534,4.674,7.757C3.553,8.622,2.289,9.103,0.881,9.165V7.726c0.928-0.096,1.76-0.464,2.497-1.104
		C4.114,5.964,4.482,5.196,4.514,4.3H1.153V2.843h8.451V4.3z M3.073,0.763h4.77V2.22h-4.77V0.763z M13.83,10.959v3.762H5.682
		c-1.536,0-2.288-0.688-2.288-2.065V9.935h9.379C13.478,9.935,13.83,10.287,13.83,10.959 M11.925,11.392H5.299v1.12
		c0,0.512,0.255,0.752,0.784,0.752h5.842V11.392z M11.925,6.478H9.012V4.988h2.913V1.002h1.905v8.244h-1.905V6.478z"/>
	<path clip-path="url(#SVGID_2_)" fill="#FFFFFF" d="M26.836,8.398c-0.496,0.592-1.409,0.88-2.753,0.88h-4.562
		c-1.697,0-2.545-0.832-2.545-2.529V1.228h6.995v1.456h-5.106v3.986c0,0.768,0.336,1.153,1.04,1.153h3.858
		c2.048,0,3.073-0.736,3.073-2.226V1.003h1.905v3.505h2.017v1.521h-2.017v4.849h-1.905V8.398z M21.539,13.232h7.443v1.488h-7.907
		c-1.713,0-2.561-0.784-2.561-2.385v-2.129h1.921v1.889C20.435,12.864,20.803,13.232,21.539,13.232"/>
	<path clip-path="url(#SVGID_2_)" fill="#FFFFFF" d="M46.086,11.808v1.521H32.049v-1.521h6.034v-2.85h1.952v2.85H46.086z
		 M40.035,1.627c0,2.018,0.545,3.521,1.665,4.546c1.024,0.961,2.192,1.473,3.474,1.553v1.472c-1.762-0.048-3.313-0.624-4.69-1.713
		c-0.576-0.448-1.056-1.007-1.408-1.648c-0.385,0.641-0.849,1.2-1.425,1.648c-1.377,1.089-2.944,1.666-4.689,1.713V7.726
		c1.28-0.08,2.433-0.592,3.473-1.553c1.105-1.025,1.665-2.528,1.665-4.546V1.195h1.937V1.627z"/>
	<path clip-path="url(#SVGID_2_)" fill="#FFFFFF" d="M50.465,3.324V2.716H47.84V1.228h7.075v1.488h-2.609v0.608
		c0,2.225,0.304,3.89,0.944,5.01c0.48,0.88,1.121,1.537,1.921,1.969v1.617c-1.345-0.497-2.434-1.345-3.266-2.529
		c-0.191-0.272-0.367-0.576-0.512-0.896c-0.16,0.32-0.337,0.624-0.529,0.896c-0.832,1.185-1.92,2.032-3.265,2.529v-1.617
		c0.785-0.432,1.425-1.089,1.921-1.969C50.145,7.214,50.465,5.549,50.465,3.324 M59.156,1.003h1.873v13.75h-1.873V7.134h-1.345
		v7.619h-1.841V1.003h1.841v4.61h1.345V1.003z"/>
</g>
</svg>
