<?xml version="1.0" encoding="utf-8"?>
<!-- Generator: Adobe Illustrator 24.0.1, SVG Export Plug-In . SVG Version: 6.00 Build 0)  -->
<svg version="1.1" id="Layer_1" xmlns="http://www.w3.org/2000/svg" xmlns:xlink="http://www.w3.org/1999/xlink" x="0px" y="0px"
	 viewBox="0 0 54.42 25.78" style="enable-background:new 0 0 54.42 25.78;" xml:space="preserve">
<style type="text/css">
	.st0{fill:#fff;}
</style>
<g>
	<path class="st0" d="M26.34,17.86h-6.57v7.92h-3.6v-7.92h-6.03v7.92h-3.6v-7.92H0.03v-2.85h26.31V17.86z M2.64,7.21h16.83V5.38
		c0-1.44-0.75-2.19-2.22-2.19H2.64V0.4h15.9c3,0,4.53,1.53,4.53,4.53v8.82h-3.6V9.97H2.64V7.21z"/>
	<path class="st0" d="M38.13,1.12c0,3.21,0.6,5.52,1.86,6.9c1.02,1.17,2.22,1.86,3.54,2.1v2.82c-2.28-0.3-4.23-1.2-5.91-2.76
		c-0.48-0.42-0.87-0.9-1.23-1.47c-0.36,0.57-0.78,1.05-1.23,1.47c-1.68,1.56-3.66,2.46-5.91,2.76v-2.82
		c1.32-0.24,2.49-0.93,3.54-2.1c1.23-1.38,1.86-3.69,1.86-6.9V0.34h3.48V1.12z M54.36,21.37H38.07v0.33c0,0.87,0.54,1.29,1.62,1.29
		h14.73v2.73H39.27c-3.18,0-4.77-1.44-4.77-4.38V18.7h16.29v-1.53H34.5v-2.7h19.11c0.48,0,0.75,0.27,0.75,0.75V21.37z M45.27,0.01
		h3.45v13.05h-3.45V6.85h-4.14V4.06h4.14V0.01z M50.85,0.01h3.51v13.05h-3.51V0.01z"/>
</g>
</svg>
