<?xml version="1.0" encoding="utf-8"?>
<!-- Generator: Adobe Illustrator 16.0.0, SVG Export Plug-In . SVG Version: 6.00 Build 0)  -->
<!DOCTYPE svg PUBLIC "-//W3C//DTD SVG 1.1//EN" "http://www.w3.org/Graphics/SVG/1.1/DTD/svg11.dtd">
<svg version="1.1" id="레이어_1" xmlns="http://www.w3.org/2000/svg" xmlns:xlink="http://www.w3.org/1999/xlink" x="0px"
	 y="0px" width="79.689px" height="38.828px" viewBox="0 0 79.689 38.828" enable-background="new 0 0 79.689 38.828"
	 xml:space="preserve">
<g>
	<defs>
		<rect id="SVGID_1_" width="79.602" height="38.828"/>
	</defs>
	<clipPath id="SVGID_2_">
		<use xlink:href="#SVGID_1_"  overflow="visible"/>
	</clipPath>
	<path clip-path="url(#SVGID_2_)" fill="#FF6600" d="M39.826,27.237h-9.637v11.529h-6.513V27.237h-7.613v11.529H9.549V27.237H0
		v-5.061h39.826V27.237z M3.829,10.646h24.688V8.843c0-2.112-1.1-3.213-3.256-3.213H3.829V0.657H28.12
		c4.577,0,6.909,2.332,6.909,6.953v13.158h-6.513v-5.193H3.829V10.646z"/>
	<path clip-path="url(#SVGID_2_)" fill="#FF6600" d="M55.53,1.758c0,4.929,0.88,8.405,2.641,10.385
		c1.408,1.585,3.168,2.553,5.281,2.86v4.841c-3.829-0.352-6.997-1.716-9.55-4.181c-0.528-0.483-1.012-1.012-1.408-1.628
		c-0.44,0.616-0.88,1.145-1.408,1.628c-2.552,2.465-5.765,3.829-9.549,4.181v-4.841c2.068-0.308,3.829-1.275,5.281-2.86
		c1.76-1.979,2.641-5.456,2.641-10.385V0.569h6.073V1.758z M79.602,32.298H55.706v0.396c0,0.924,0.792,1.364,2.376,1.364h21.607
		v4.62H56.542c-4.885,0-7.305-2.244-7.305-6.777v-4.136h23.896v-1.629H49.237v-4.576h29.22c0.748,0,1.145,0.396,1.145,1.188V32.298z
		 M65.167,0.085h6.029v19.848h-6.029v-9.021h-5.721V6.114h5.721V0.085z M73.484,0.085h6.117v19.848h-6.117V0.085z"/>
</g>
</svg>
