<?xml version="1.0" encoding="utf-8"?>
<!-- Generator: Adobe Illustrator 16.0.0, SVG Export Plug-In . SVG Version: 6.00 Build 0)  -->
<!DOCTYPE svg PUBLIC "-//W3C//DTD SVG 1.1//EN" "http://www.w3.org/Graphics/SVG/1.1/DTD/svg11.dtd">
<svg version="1.1" id="레이어_1" xmlns="http://www.w3.org/2000/svg" xmlns:xlink="http://www.w3.org/1999/xlink" x="0px"
	 y="0px" width="28.195px" height="13.584px" viewBox="0 0 28.195 13.584" enable-background="new 0 0 28.195 13.584"
	 xml:space="preserve">
<g>
	<defs>
		<rect id="SVGID_1_" width="28.195" height="13.584"/>
	</defs>
	<clipPath id="SVGID_2_">
		<use xlink:href="#SVGID_1_"  overflow="visible"/>
	</clipPath>
	<g clip-path="url(#SVGID_2_)">
		<path fill="#FFFFFF" d="M13.731,9.307h-3.506v4.227H8.657V9.307H5.088v4.227H3.519V9.307H0.046V8.043h13.686V9.307z M1.422,3.881
			h8.996V2.648c0-0.769-0.4-1.169-1.185-1.169H1.422V0.247h8.227c1.553,0,2.337,0.784,2.337,2.337v4.563h-1.568V5.098H1.422V3.881z"
			/>
		<path fill="#FFFFFF" d="M19.535,0.615c0,1.713,0.336,2.93,1.024,3.666c0.608,0.656,1.249,1.024,1.92,1.12V6.65
			c-1.056-0.112-2.017-0.561-2.897-1.361c-0.32-0.271-0.576-0.607-0.8-1.024c-0.224,0.417-0.496,0.753-0.8,1.024
			c-0.896,0.801-1.857,1.249-2.897,1.361V5.401c0.672-0.096,1.313-0.464,1.92-1.12c0.672-0.736,1.024-1.953,1.024-3.666V0.216h1.505
			V0.615z M28.195,11.164h-8.74v0.24c0,0.607,0.288,0.896,0.864,0.896h7.907v1.201h-7.859c-1.648,0-2.465-0.721-2.465-2.177V9.979
			h8.74V8.907h-8.74V7.723h9.908c0.257,0,0.385,0.128,0.385,0.368V11.164z M23.681,0.039h1.521v6.803h-1.521V3.433h-2.305V2.2h2.305
			V0.039z M26.658,0.039h1.537v6.803h-1.537V0.039z"/>
	</g>
</g>
</svg>
