<?xml version="1.0" encoding="utf-8"?>
<!-- Generator: Adobe Illustrator 16.0.0, SVG Export Plug-In . SVG Version: 6.00 Build 0)  -->
<!DOCTYPE svg PUBLIC "-//W3C//DTD SVG 1.1//EN" "http://www.w3.org/Graphics/SVG/1.1/DTD/svg11.dtd">
<svg version="1.1" id="레이어_1" xmlns="http://www.w3.org/2000/svg" xmlns:xlink="http://www.w3.org/1999/xlink" viewBox="0 0 58.569 13.813" xml:space="preserve">
<g>
	<defs>
		<rect id="SVGID_1_" width="58.569" height="13.813"/>
	</defs>
	<clipPath id="SVGID_2_">
		<use xlink:href="#SVGID_1_"  overflow="visible"/>
	</clipPath>
	<g clip-path="url(#SVGID_2_)">
		<path d="M8.632,3.331h-3.25C5.366,4.388,5.767,5.236,6.567,5.908c0.736,0.625,1.568,0.977,2.497,1.073v1.2
			C7.719,8.085,6.551,7.638,5.526,6.837C5.158,6.564,4.854,6.245,4.614,5.893c-0.256,0.353-0.56,0.672-0.912,0.944
			C2.677,7.638,1.493,8.085,0.164,8.182v-1.2c0.929-0.097,1.761-0.448,2.497-1.073c0.8-0.672,1.185-1.521,1.185-2.577H0.437v-1.2
			h8.195V3.331z M2.341,0.05h4.546v1.201H2.341V0.05z M12.809,10.198v3.554H4.902c-1.472,0-2.208-0.641-2.208-1.953V9.222h9.091
			C12.457,9.222,12.809,9.558,12.809,10.198z M11.257,10.422H4.246v1.281c0,0.576,0.272,0.848,0.833,0.848h6.179V10.422z
			 M11.257,5.509H8.184V4.275h3.073V0.29h1.552v8.035h-1.552V5.509z"/>
		<path d="M25.688,7.573C25.24,8.069,24.312,8.31,22.903,8.31h-4.61c-1.649,0-2.465-0.816-2.465-2.449V0.515h6.675v1.2h-5.138v4.178
			c0,0.816,0.352,1.217,1.088,1.217h4.209c2.017,0,3.025-0.576,3.025-1.761V0.29h1.553v3.506h2.064v1.265h-2.064v4.945h-1.553V7.573
			z M20.038,12.52h7.443v1.232h-7.635c-1.665,0-2.481-0.753-2.481-2.257V9.398h1.568v1.984C18.934,12.151,19.302,12.52,20.038,12.52
			z"/>
		<path d="M44.105,11.095v1.265H30.42v-1.265h6.034V8.134h1.601v2.961H44.105z M38.055,0.898c0,1.969,0.561,3.474,1.697,4.514
			c1.056,0.992,2.208,1.521,3.44,1.585v1.232c-1.584-0.048-3.041-0.608-4.386-1.665c-0.656-0.512-1.168-1.136-1.536-1.889
			c-0.384,0.753-0.912,1.377-1.553,1.889c-1.345,1.057-2.817,1.617-4.386,1.665V6.997c1.216-0.064,2.369-0.593,3.441-1.585
			c1.12-1.04,1.696-2.545,1.696-4.514V0.482h1.585V0.898z"/>
		<path d="M48.356,1.747h-2.705V0.515h6.883v1.232h-2.688v0.832c0,2.209,0.32,3.89,0.96,5.01c0.545,0.977,1.217,1.617,1.985,1.921
			v1.36c-1.152-0.336-2.146-1.12-3.01-2.337c-0.271-0.368-0.496-0.784-0.672-1.264c-0.192,0.479-0.433,0.896-0.688,1.264
			c-0.864,1.217-1.873,2.001-3.009,2.337V9.51c0.768-0.304,1.424-0.944,1.984-1.921c0.641-1.12,0.96-2.801,0.96-5.01V1.747z
			 M57.032,0.29h1.537v13.494h-1.537V6.165h-1.664v7.619h-1.521V0.29h1.521V4.9h1.664V0.29z"/>
	</g>
</g>
</svg>
