<?xml version="1.0" encoding="utf-8"?>
<!-- Generator: Adobe Illustrator 16.0.0, SVG Export Plug-In . SVG Version: 6.00 Build 0)  -->
<!DOCTYPE svg PUBLIC "-//W3C//DTD SVG 1.1//EN" "http://www.w3.org/Graphics/SVG/1.1/DTD/svg11.dtd">
<svg version="1.1" id="레이어_1" xmlns="http://www.w3.org/2000/svg" xmlns:xlink="http://www.w3.org/1999/xlink" x="0px"
	 y="0px" width="66.055px" height="15.813px" viewBox="0 0 66.055 15.813" enable-background="new 0 0 66.055 15.813"
	 xml:space="preserve">
<g>
	<defs>
		<rect id="SVGID_1_" width="66.055" height="15.813"/>
	</defs>
	<clipPath id="SVGID_2_">
		<use xlink:href="#SVGID_1_"  overflow="visible"/>
	</clipPath>
	<g clip-path="url(#SVGID_2_)">
		<path fill="#333333" d="M9.822,4.064H6.221c0.018,1.008,0.45,1.872,1.278,2.61C8.31,7.396,9.246,7.81,10.308,7.917v1.621
			C8.724,9.466,7.301,8.926,6.041,7.953C5.698,7.701,5.41,7.413,5.158,7.107C4.906,7.413,4.601,7.701,4.276,7.953
			C3.016,8.926,1.594,9.466,0.009,9.538V7.917c1.044-0.107,1.98-0.521,2.809-1.242c0.828-0.738,1.243-1.603,1.278-2.61H0.314V2.426
			h9.508V4.064z M2.476,0.085h5.365v1.639H2.476V0.085z M14.575,11.555v4.23H5.41c-1.729,0-2.574-0.773-2.574-2.322v-3.061h10.551
			C14.179,10.402,14.575,10.798,14.575,11.555z M12.433,12.041H4.979v1.26c0,0.576,0.288,0.847,0.882,0.847h6.572V12.041z
			 M12.433,6.513H9.155V4.838h3.277V0.355h2.143v9.272h-2.143V6.513z"/>
		<path fill="#333333" d="M28.669,8.674c-0.559,0.666-1.585,0.99-3.098,0.99H20.44c-1.909,0-2.863-0.937-2.863-2.845V0.607h7.868
			v1.639h-5.743v4.482c0,0.864,0.378,1.297,1.17,1.297h4.34c2.305,0,3.457-0.828,3.457-2.503V0.355h2.143v3.942h2.269v1.711h-2.269
			v5.456h-2.143V8.674z M22.709,14.111h8.372v1.674h-8.895c-1.927,0-2.881-0.882-2.881-2.683v-2.395h2.161v2.125
			C21.467,13.697,21.881,14.111,22.709,14.111z"/>
		<path fill="#333333" d="M49.784,12.509v1.71H33.993v-1.71h6.788V9.304h2.196v3.205H49.784z M42.978,1.058
			c0,2.269,0.612,3.961,1.873,5.113c1.152,1.08,2.467,1.656,3.907,1.746v1.657c-1.98-0.055-3.728-0.703-5.275-1.927
			c-0.648-0.505-1.188-1.135-1.585-1.854c-0.432,0.72-0.954,1.35-1.603,1.854c-1.548,1.224-3.313,1.872-5.275,1.927V7.917
			c1.44-0.09,2.736-0.666,3.907-1.746c1.242-1.152,1.872-2.845,1.872-5.113V0.571h2.179V1.058z"/>
		<path fill="#333333" d="M54.171,2.966V2.281h-2.952V0.607h7.958v1.674h-2.935v0.685c0,2.503,0.342,4.375,1.063,5.636
			c0.54,0.99,1.26,1.729,2.16,2.215v1.818c-1.513-0.559-2.736-1.513-3.673-2.845c-0.216-0.307-0.414-0.648-0.576-1.009
			c-0.181,0.36-0.378,0.702-0.595,1.009c-0.936,1.332-2.16,2.286-3.673,2.845v-1.818c0.882-0.486,1.603-1.225,2.161-2.215
			C53.812,7.341,54.171,5.469,54.171,2.966z M63.948,0.355h2.106v15.466h-2.106v-8.57h-1.513v8.57h-2.07V0.355h2.07v5.186h1.513
			V0.355z"/>
	</g>
</g>
</svg>
