<?xml version="1.0" encoding="utf-8"?>
<!-- Generator: Adobe Illustrator 16.0.0, SVG Export Plug-In . SVG Version: 6.00 Build 0)  -->
<!DOCTYPE svg PUBLIC "-//W3C//DTD SVG 1.1//EN" "http://www.w3.org/Graphics/SVG/1.1/DTD/svg11.dtd">
<svg version="1.1" id="레이어_1" xmlns="http://www.w3.org/2000/svg" xmlns:xlink="http://www.w3.org/1999/xlink" x="0px"
	 y="0px" width="43.309px" height="13.531px" viewBox="0 0 43.309 13.531" enable-background="new 0 0 43.309 13.531"
	 xml:space="preserve">
<g>
	<defs>
		<rect id="SVGID_1_" width="43.309" height="13.531"/>
	</defs>
	<clipPath id="SVGID_2_">
		<use xlink:href="#SVGID_1_"  overflow="visible"/>
	</clipPath>
	<path clip-path="url(#SVGID_2_)" d="M3.848,5.434l0.048-0.096H0.391V4.121h3.985c0.225-0.801,0.368-1.681,0.4-2.625H0.391V0.264
		h4.882c0.736,0,1.104,0.368,1.137,1.104c0.031,1.04-0.112,2.049-0.416,3.041h1.984v-4.37h1.521v13.494H7.978V5.689H5.48
		C5.337,6.01,5.177,6.313,5,6.602c-1.12,1.857-2.753,3.25-4.93,4.194V9.499C1.719,8.555,2.983,7.194,3.848,5.434z M10.955,0.039
		h1.536v13.494h-1.536V0.039z"/>
	<path clip-path="url(#SVGID_2_)" d="M22.569,1.271v9.06h-4.898c-1.632,0-2.433-0.816-2.433-2.465V0.264h6.339
		C22.233,0.264,22.569,0.6,22.569,1.271z M21.049,1.496h-4.273v6.418c0,0.801,0.368,1.185,1.136,1.185h3.138V1.496z M25.274,13.533
		V0.039h1.568v13.494H25.274z"/>
	<path clip-path="url(#SVGID_2_)" d="M34.12,4.089c0.049-0.048,0.097-0.112,0.16-0.176h-4.306V2.729h5.122
		c0.208-0.448,0.336-0.912,0.385-1.425h-5.507v-1.2h6.163c0.72,0,1.072,0.416,1.04,1.216c-0.064,1.505-0.736,2.834-2.049,3.954
		c-1.328,1.137-3.153,1.761-5.49,1.856v-1.2C31.527,5.802,33.032,5.178,34.12,4.089z M41.132,11.164h-8.5v0.24
		c0,0.607,0.288,0.896,0.864,0.896h7.667v1.201h-7.619c-1.648,0-2.465-0.721-2.465-2.177V9.979h8.5V8.907h-8.5V7.723h9.668
		c0.256,0,0.385,0.128,0.385,0.368V11.164z M41.132,2.761h2.177v1.232h-2.177v2.849h-1.553V0.039h1.553V2.761z"/>
</g>
</svg>
