<?xml version="1.0" encoding="utf-8"?>
<!-- Generator: Adobe Illustrator 24.0.1, SVG Export Plug-In . SVG Version: 6.00 Build 0)  -->
<svg version="1.1" id="Layer_1" xmlns="http://www.w3.org/2000/svg" xmlns:xlink="http://www.w3.org/1999/xlink" x="0px" y="0px"
	 viewBox="0 0 112.81 26.26" style="enable-background:new 0 0 112.81 26.26;" xml:space="preserve">
<style type="text/css">
	.st0{fill:#FF6600;}
</style>
<g>
	<path class="st0" d="M16.38,6.67h-6c0.03,1.68,0.75,3.12,2.13,4.35c1.35,1.2,2.91,1.89,4.68,2.07v2.7
		c-2.64-0.12-5.01-1.02-7.11-2.64c-0.57-0.42-1.05-0.9-1.47-1.41c-0.42,0.51-0.93,0.99-1.47,1.41c-2.1,1.62-4.47,2.52-7.11,2.64
		v-2.7c1.74-0.18,3.3-0.87,4.68-2.07c1.38-1.23,2.07-2.67,2.13-4.35h-6.3V3.94h15.84V6.67z M4.14,0.04h8.94v2.73H4.14V0.04z
		 M24.3,19.15v7.05H9.03c-2.88,0-4.29-1.29-4.29-3.87v-5.1h17.58C23.64,17.23,24.3,17.89,24.3,19.15z M20.73,19.96H8.31v2.1
		c0,0.96,0.48,1.41,1.47,1.41h10.95V19.96z M20.73,10.75h-5.46V7.96h5.46V0.49h3.57v15.45h-3.57V10.75z"/>
	<path class="st0" d="M48.69,14.35C47.76,15.46,46.05,16,43.53,16h-8.55c-3.18,0-4.77-1.56-4.77-4.74V0.91h13.11v2.73h-9.57v7.47
		c0,1.44,0.63,2.16,1.95,2.16h7.23c3.84,0,5.76-1.38,5.76-4.17V0.49h3.57v6.57h3.78v2.85h-3.78V19h-3.57V14.35z M38.76,23.41h13.95
		v2.79H37.89c-3.21,0-4.8-1.47-4.8-4.47v-3.99h3.6v3.54C36.69,22.72,37.38,23.41,38.76,23.41z"/>
	<path class="st0" d="M84.78,20.74v2.85H58.47v-2.85h11.31V15.4h3.66v5.34H84.78z M73.44,1.66c0,3.78,1.02,6.6,3.12,8.52
		c1.92,1.8,4.11,2.76,6.51,2.91v2.76c-3.3-0.09-6.21-1.17-8.79-3.21c-1.08-0.84-1.98-1.89-2.64-3.09c-0.72,1.2-1.59,2.25-2.67,3.09
		c-2.58,2.04-5.52,3.12-8.79,3.21v-2.76c2.4-0.15,4.56-1.11,6.51-2.91c2.07-1.92,3.12-4.74,3.12-8.52V0.85h3.63V1.66z"/>
	<path class="st0" d="M93,4.84V3.7h-4.92V0.91h13.26V3.7h-4.89v1.14c0,4.17,0.57,7.29,1.77,9.39c0.9,1.65,2.1,2.88,3.6,3.69v3.03
		c-2.52-0.93-4.56-2.52-6.12-4.74c-0.36-0.51-0.69-1.08-0.96-1.68c-0.3,0.6-0.63,1.17-0.99,1.68c-1.56,2.22-3.6,3.81-6.12,4.74
		v-3.03c1.47-0.81,2.67-2.04,3.6-3.69C92.4,12.13,93,9.01,93,4.84z M109.29,0.49h3.51v25.77h-3.51V11.98h-2.52v14.28h-3.45V0.49
		h3.45v8.64h2.52V0.49z"/>
</g>
</svg>
