<?xml version="1.0" encoding="utf-8"?>
<!-- Generator: Adobe Illustrator 24.0.1, SVG Export Plug-In . SVG Version: 6.00 Build 0)  -->
<svg version="1.1" id="Layer_1" xmlns="http://www.w3.org/2000/svg" xmlns:xlink="http://www.w3.org/1999/xlink" x="0px" y="0px"
	 viewBox="0 0 83.45 25.78" style="enable-background:new 0 0 83.45 25.78;" xml:space="preserve">
<style type="text/css">
	.st0{fill:#FF6600;}
</style>
<g>
	<path class="st0" d="M8.08,7.66C8.5,6.28,8.71,4.78,8.77,3.22H0.61V0.43h9.63c1.47,0,2.22,0.84,2.22,2.46
		c0,1.86-0.24,3.63-0.72,5.31h3.12V0.01h3.45v25.77h-3.45v-14.7h-4.23c-0.27,0.54-0.54,1.08-0.84,1.56
		c-2.1,3.51-5.37,6.24-9.78,8.16v-2.91c3.06-1.86,5.4-4.35,6.99-7.5H0.61V7.66H8.08z M20.44,0.01h3.51v25.77h-3.51V0.01z"/>
	<path class="st0" d="M43.75,2.38v17.4h-9.63c-3.18,0-4.77-1.56-4.77-4.74V0.43H41.8C43.09,0.43,43.75,1.09,43.75,2.38z M40.24,3.22
		h-7.35v11.61c0,1.44,0.63,2.16,1.95,2.16h5.4V3.22z M48.16,25.78V0.01h3.6v25.77H48.16z"/>
	<path class="st0" d="M67.57,5.02c0.3-0.69,0.51-1.41,0.6-2.16H57.88V0.13h12.03c1.5,0,2.22,0.96,2.1,2.82
		c-0.18,2.82-1.5,5.22-3.93,7.2c-2.73,2.22-6.33,3.39-10.83,3.54v-2.7c3.57-0.27,6.36-1.38,8.34-3.3h-7.71V5.02H67.57z M79.45,21.37
		H63.61v0.33c0,0.87,0.54,1.29,1.62,1.29h14.28v2.73h-14.7c-3.18,0-4.77-1.44-4.77-4.38V18.7h15.84v-1.53H60.04v-2.7H78.7
		c0.48,0,0.75,0.27,0.75,0.75V21.37z M79.45,5.11h3.99V7.9h-3.99v5.16h-3.57V0.01h3.57V5.11z"/>
</g>
</svg>
