<?xml version="1.0" encoding="utf-8"?>
<!-- Generator: Adobe Illustrator 24.0.1, SVG Export Plug-In . SVG Version: 6.00 Build 0)  -->
<svg version="1.1" id="Layer_1" xmlns="http://www.w3.org/2000/svg" xmlns:xlink="http://www.w3.org/1999/xlink" x="0px" y="0px"
	 viewBox="0 0 170.97 25.85" style="enable-background:new 0 0 170.97 25.85;" xml:space="preserve">
<g>
	<path d="M15.65,5.74H-0.01V3.55h15.66V5.74z M7.82,17.2c-2.04,0-3.63-0.51-4.83-1.53c-1.2-0.99-1.8-2.19-1.8-3.6
		c0-1.38,0.6-2.61,1.8-3.63c1.2-1.02,2.79-1.53,4.83-1.53c2.01,0,3.63,0.51,4.83,1.53c1.2,1.02,1.8,2.25,1.8,3.63
		c0,1.41-0.6,2.61-1.8,3.6C11.45,16.69,9.83,17.2,7.82,17.2z M8.6,23.47h14.07v2.28H8.24c-3.12,0-4.65-1.38-4.65-4.17V18.7h2.94
		v2.64C6.53,22.78,7.22,23.47,8.6,23.47z M3.89,0.01h7.86v2.22H3.89V0.01z M7.82,15.01c1.11,0,2.04-0.27,2.76-0.84
		c0.69-0.54,1.05-1.26,1.05-2.1c0-0.84-0.36-1.53-1.05-2.13C9.86,9.4,8.93,9.1,7.82,9.1c-1.14,0-2.04,0.3-2.73,0.84
		c-0.72,0.6-1.08,1.29-1.08,2.13c0,0.84,0.36,1.56,1.08,2.1C5.78,14.74,6.68,15.01,7.82,15.01z M22.43,7.12h3.81v2.34h-3.81v9.27
		h-2.91V0.52h2.91V7.12z"/>
	<path d="M36.32,17.08c-1.32-0.18-2.43-0.66-3.33-1.41c-1.26-0.99-1.86-2.19-1.86-3.6c0-1.38,0.6-2.61,1.86-3.63
		c1.23-0.99,2.82-1.5,4.77-1.5c1.92,0,3.51,0.51,4.77,1.5c1.23,1.02,1.86,2.25,1.86,3.63c0,1.41-0.63,2.61-1.86,3.6
		c-0.93,0.75-2.01,1.2-3.27,1.38v3.06h4.11c3.84,0,5.79-1.53,5.79-4.62V0.52h2.91v8.64h3.81v2.37h-3.81v14.28h-2.91v-5.16
		c-0.96,1.2-2.67,1.77-5.19,1.77H29.15v-2.31h7.17V17.08z M45.53,5.8H29.87V3.55h15.66V5.8z M33.83,0.01h7.86v2.28h-7.86V0.01z
		 M37.76,14.98c1.02,0,1.92-0.27,2.7-0.87c0.72-0.54,1.11-1.23,1.11-2.04c0-0.78-0.39-1.47-1.11-2.07c-0.78-0.57-1.68-0.87-2.7-0.87
		c-1.05,0-1.95,0.3-2.67,0.87c-0.78,0.6-1.14,1.29-1.14,2.07c0,0.81,0.36,1.5,1.14,2.04C35.81,14.71,36.71,14.98,37.76,14.98z"/>
	<path d="M74.66,6.22h-6.09c-0.03,1.98,0.72,3.57,2.22,4.83c1.38,1.17,2.94,1.83,4.68,2.01v2.25c-2.52-0.18-4.71-1.02-6.63-2.52
		c-0.69-0.51-1.26-1.11-1.71-1.77c-0.48,0.66-1.05,1.26-1.71,1.77c-1.92,1.5-4.14,2.34-6.63,2.52v-2.25
		c1.74-0.18,3.3-0.84,4.68-2.01c1.5-1.26,2.22-2.85,2.22-4.83H59.3V3.97h15.36V6.22z M62.87,0.07h8.52v2.25h-8.52V0.07z
		 M82.48,19.09v6.66H67.67c-2.76,0-4.14-1.2-4.14-3.66v-4.83h17.04C81.82,17.26,82.48,17.89,82.48,19.09z M79.57,19.51H66.44v2.4
		c0,1.08,0.51,1.59,1.56,1.59h11.58V19.51z M79.57,10.3h-5.76V7.99h5.76V0.52h2.91v15.06h-2.91V10.3z"/>
	<path d="M107.53,14.17c-0.84,0.93-2.58,1.38-5.22,1.38h-8.64c-3.09,0-4.62-1.53-4.62-4.59V0.94h12.51v2.25h-9.63v7.83
		c0,1.53,0.66,2.28,2.04,2.28h7.89c3.78,0,5.67-1.08,5.67-3.3V0.52h2.91v6.57h3.87v2.37h-3.87v9.27h-2.91V14.17z M96.95,23.44h13.95
		v2.31H96.59c-3.12,0-4.65-1.41-4.65-4.23v-3.93h2.94v3.72C94.88,22.75,95.57,23.44,96.95,23.44z"/>
	<path d="M142.96,20.77v2.37h-25.65v-2.37h11.31v-5.55h3v5.55H142.96z M131.62,1.66c0,3.69,1.05,6.51,3.18,8.46
		c1.98,1.86,4.14,2.85,6.45,2.97v2.31c-2.97-0.09-5.7-1.14-8.22-3.12c-1.23-0.96-2.19-2.13-2.88-3.54
		c-0.72,1.41-1.71,2.58-2.91,3.54c-2.52,1.98-5.28,3.03-8.22,3.12v-2.31c2.28-0.12,4.44-1.11,6.45-2.97
		c2.1-1.95,3.18-4.77,3.18-8.46V0.88h2.97V1.66z"/>
	<path d="M151.85,3.25h-5.07V0.94h12.9v2.31h-5.04v1.56c0,4.14,0.6,7.29,1.8,9.39c1.02,1.83,2.28,3.03,3.72,3.6v2.55
		c-2.16-0.63-4.02-2.1-5.64-4.38c-0.51-0.69-0.93-1.47-1.26-2.37c-0.36,0.9-0.81,1.68-1.29,2.37c-1.62,2.28-3.51,3.75-5.64,4.38
		V17.8c1.44-0.57,2.67-1.77,3.72-3.6c1.2-2.1,1.8-5.25,1.8-9.39V3.25z M168.1,0.52h2.88v25.29h-2.88V11.53h-3.12v14.28h-2.85V0.52
		h2.85v8.64h3.12V0.52z"/>
</g>
</svg>
