<?xml version="1.0" encoding="utf-8"?>
<!-- Generator: Adobe Illustrator 24.0.1, SVG Export Plug-In . SVG Version: 6.00 Build 0)  -->
<svg version="1.1" id="Layer_1" xmlns="http://www.w3.org/2000/svg" xmlns:xlink="http://www.w3.org/1999/xlink" x="0px" y="0px"
	 viewBox="0 0 142.32 25.85" style="enable-background:new 0 0 142.32 25.85;" xml:space="preserve">
<g>
	<path d="M15.65,5.74H-0.01V3.55h15.66V5.74z M7.82,17.2c-2.04,0-3.63-0.51-4.83-1.53c-1.2-0.99-1.8-2.19-1.8-3.6
		c0-1.38,0.6-2.61,1.8-3.63c1.2-1.02,2.79-1.53,4.83-1.53c2.01,0,3.63,0.51,4.83,1.53c1.2,1.02,1.8,2.25,1.8,3.63
		c0,1.41-0.6,2.61-1.8,3.6C11.45,16.69,9.83,17.2,7.82,17.2z M8.6,23.47h14.07v2.28H8.24c-3.12,0-4.65-1.38-4.65-4.17V18.7h2.94
		v2.64C6.53,22.78,7.22,23.47,8.6,23.47z M3.89,0.01h7.86v2.22H3.89V0.01z M7.82,15.01c1.11,0,2.04-0.27,2.76-0.84
		c0.69-0.54,1.05-1.26,1.05-2.1c0-0.84-0.36-1.53-1.05-2.13C9.86,9.4,8.93,9.1,7.82,9.1c-1.14,0-2.04,0.3-2.73,0.84
		c-0.72,0.6-1.08,1.29-1.08,2.13c0,0.84,0.36,1.56,1.08,2.1C5.78,14.74,6.68,15.01,7.82,15.01z M22.43,7.12h3.81v2.34h-3.81v9.27
		h-2.91V0.52h2.91V7.12z"/>
	<path d="M36.32,17.08c-1.32-0.18-2.43-0.66-3.33-1.41c-1.26-0.99-1.86-2.19-1.86-3.6c0-1.38,0.6-2.61,1.86-3.63
		c1.23-0.99,2.82-1.5,4.77-1.5c1.92,0,3.51,0.51,4.77,1.5c1.23,1.02,1.86,2.25,1.86,3.63c0,1.41-0.63,2.61-1.86,3.6
		c-0.93,0.75-2.01,1.2-3.27,1.38v3.06h4.11c3.84,0,5.79-1.53,5.79-4.62V0.52h2.91v8.64h3.81v2.37h-3.81v14.28h-2.91v-5.16
		c-0.96,1.2-2.67,1.77-5.19,1.77H29.15v-2.31h7.17V17.08z M45.53,5.8H29.87V3.55h15.66V5.8z M33.83,0.01h7.86v2.28h-7.86V0.01z
		 M37.76,14.98c1.02,0,1.92-0.27,2.7-0.87c0.72-0.54,1.11-1.23,1.11-2.04c0-0.78-0.39-1.47-1.11-2.07c-0.78-0.57-1.68-0.87-2.7-0.87
		c-1.05,0-1.95,0.3-2.67,0.87c-0.78,0.6-1.14,1.29-1.14,2.07c0,0.81,0.36,1.5,1.14,2.04C35.81,14.71,36.71,14.98,37.76,14.98z"/>
	<path d="M66.44,10.63l0.09-0.18h-6.57V8.17h7.47c0.42-1.5,0.69-3.15,0.75-4.92h-8.22V0.94h9.15c1.38,0,2.07,0.69,2.13,2.07
		c0.06,1.95-0.21,3.84-0.78,5.7h3.72V0.52h2.85v25.29h-2.85v-14.7H69.5c-0.27,0.6-0.57,1.17-0.9,1.71c-2.1,3.48-5.16,6.09-9.24,7.86
		v-2.43C62.45,16.48,64.82,13.93,66.44,10.63z M79.76,0.52h2.88v25.29h-2.88V0.52z"/>
	<path d="M102.44,2.83v16.98h-9.18c-3.06,0-4.56-1.53-4.56-4.62V0.94h11.88C101.81,0.94,102.44,1.57,102.44,2.83z M99.59,3.25h-8.01
		v12.03c0,1.5,0.69,2.22,2.13,2.22h5.88V3.25z M107.51,25.81V0.52h2.94v25.29H107.51z"/>
	<path d="M124.99,8.11c0.09-0.09,0.18-0.21,0.3-0.33h-8.07V5.56h9.6c0.39-0.84,0.63-1.71,0.72-2.67h-10.32V0.64h11.55
		c1.35,0,2.01,0.78,1.95,2.28c-0.12,2.82-1.38,5.31-3.84,7.41c-2.49,2.13-5.91,3.3-10.29,3.48v-2.25
		C120.14,11.32,122.95,10.15,124.99,8.11z M138.13,21.37H122.2v0.45c0,1.14,0.54,1.68,1.62,1.68h14.37v2.25h-14.28
		c-3.09,0-4.62-1.35-4.62-4.08v-2.52h15.93v-2.01H119.3v-2.22h18.12c0.48,0,0.72,0.24,0.72,0.69V21.37z M138.13,5.62h4.08v2.31
		h-4.08v5.34h-2.91V0.52h2.91V5.62z"/>
</g>
</svg>
