<?xml version="1.0" encoding="utf-8"?>
<!-- Generator: Adobe Illustrator 24.0.1, SVG Export Plug-In . SVG Version: 6.00 Build 0)  -->
<svg version="1.1" id="Layer_1" xmlns="http://www.w3.org/2000/svg" xmlns:xlink="http://www.w3.org/1999/xlink" x="0px" y="0px"
	 viewBox="0 0 52.74 12.12" style="enable-background:new 0 0 52.74 12.12;" xml:space="preserve">
<style type="text/css">
	.st0{fill:#12100B;}
</style>
<g>
	<path class="st0" d="M0,0.41h2.37v0.91H1.05v9.8h1.32v0.91H0V0.41z"/>
	<path class="st0" d="M7.71,7.46c0.03,0.37,0.13,0.65,0.28,0.85c0.29,0.36,0.78,0.54,1.49,0.54c0.42,0,0.79-0.09,1.11-0.27
		c0.32-0.18,0.48-0.46,0.48-0.83c0-0.28-0.13-0.5-0.38-0.65c-0.16-0.09-0.48-0.2-0.97-0.32l-0.9-0.22c-0.57-0.14-1-0.3-1.27-0.47
		C7.07,5.8,6.82,5.38,6.82,4.85c0-0.62,0.23-1.13,0.68-1.52s1.07-0.58,1.84-0.58c1.01,0,1.74,0.29,2.18,0.88
		c0.28,0.37,0.42,0.77,0.41,1.2h-1.05c-0.02-0.25-0.11-0.48-0.27-0.68C10.36,3.85,9.9,3.71,9.26,3.71c-0.43,0-0.75,0.08-0.98,0.24
		C8.06,4.11,7.95,4.32,7.95,4.58c0,0.29,0.15,0.52,0.44,0.69c0.17,0.1,0.42,0.19,0.74,0.27l0.75,0.18c0.81,0.19,1.36,0.38,1.63,0.56
		c0.43,0.28,0.65,0.73,0.65,1.34c0,0.59-0.23,1.1-0.68,1.52c-0.45,0.43-1.14,0.64-2.06,0.64c-1,0-1.7-0.22-2.11-0.67
		c-0.41-0.45-0.64-1-0.67-1.66H7.71z"/>
	<path class="st0" d="M13.54,8.59c-0.22-0.33-0.37-0.72-0.44-1.17c-0.07-0.3-0.1-0.79-0.1-1.46h4.84c-0.02-0.67-0.18-1.21-0.48-1.61
		c-0.3-0.41-0.75-0.61-1.38-0.61c-0.58,0-1.04,0.19-1.39,0.57c-0.2,0.22-0.34,0.48-0.42,0.77h-1.09c0.03-0.24,0.12-0.51,0.29-0.81
		s0.34-0.54,0.55-0.73c0.34-0.33,0.75-0.55,1.25-0.67c0.27-0.07,0.57-0.1,0.91-0.1c0.82,0,1.52,0.3,2.09,0.9s0.86,1.44,0.86,2.51
		c0,1.06-0.29,1.92-0.86,2.58c-0.58,0.66-1.33,0.99-2.26,0.99c-0.47,0-0.92-0.11-1.36-0.33C14.1,9.22,13.77,8.94,13.54,8.59z
		 M14.14,6.85c0.04,0.48,0.15,0.87,0.31,1.15c0.3,0.54,0.81,0.8,1.52,0.8c0.51,0,0.94-0.18,1.28-0.55c0.35-0.37,0.53-0.84,0.55-1.4
		H14.14z"/>
	<path class="st0" d="M20.32,0.54h0.63v1.92h-0.63V0.54z"/>
	<path class="st0" d="M22.84,0.47h1.11v9.06h-1.11V0.47z"/>
	<path class="st0" d="M26.72,2.92v4.39c0,0.34,0.05,0.61,0.16,0.83c0.19,0.39,0.55,0.59,1.08,0.59c0.75,0,1.27-0.35,1.54-1.04
		c0.15-0.37,0.22-0.88,0.22-1.52V2.92h1.11v6.61h-1.05l0.01-0.97c-0.14,0.25-0.32,0.46-0.53,0.63c-0.42,0.35-0.92,0.52-1.51,0.52
		c-0.92,0-1.55-0.31-1.89-0.94c-0.18-0.34-0.27-0.79-0.27-1.35V2.92H26.72z"/>
	<path class="st0" d="M34.31,3.64V4l-0.96,1.93h-0.38L32.03,4V3.64h0.95h0.38H34.31z M32.03,9.64V9.27l0.96-1.93h0.38l0.95,1.93
		v0.36h-0.95h-0.38H32.03z"/>
	<path class="st0" d="M36.97,1.18C37.29,0.4,37.86,0,38.67,0c0.18,0,0.35,0.02,0.51,0.06c0.1,0.02,0.23,0.06,0.4,0.12l-0.09,1
		c-0.17-0.07-0.31-0.12-0.41-0.16c-0.1-0.04-0.21-0.05-0.31-0.05c-0.37,0-0.62,0.19-0.76,0.56c-0.14,0.37-0.23,1.03-0.28,1.96
		l-0.2,4.21c-0.07,1.5-0.27,2.61-0.58,3.34c-0.32,0.73-0.89,1.09-1.73,1.09c-0.16,0-0.31-0.01-0.43-0.04
		c-0.12-0.03-0.24-0.06-0.36-0.1l0.09-1.02c0.11,0.05,0.21,0.1,0.31,0.13s0.21,0.05,0.33,0.05c0.35,0,0.61-0.16,0.79-0.47
		c0.17-0.31,0.28-0.89,0.33-1.73l0.32-5.44C36.66,2.4,36.79,1.64,36.97,1.18z"/>
	<path class="st0" d="M40.36,2.92h1.06v0.94c0.31-0.39,0.64-0.67,0.99-0.83c0.35-0.17,0.74-0.25,1.17-0.25
		c0.94,0,1.57,0.33,1.9,0.98c0.18,0.36,0.27,0.87,0.27,1.54v4.24h-1.13V5.37c0-0.4-0.06-0.73-0.18-0.97
		c-0.2-0.41-0.56-0.62-1.07-0.62c-0.26,0-0.48,0.03-0.65,0.08c-0.3,0.09-0.57,0.27-0.8,0.54c-0.19,0.22-0.31,0.44-0.36,0.68
		s-0.08,0.56-0.08,1v3.46h-1.11V2.92z"/>
	<path class="st0" d="M50.37,11.11h1.31v-9.8h-1.31V0.41h2.37v11.61h-2.37V11.11z"/>
</g>
</svg>
