<?xml version="1.0" encoding="utf-8"?>
<!-- Generator: Adobe Illustrator 16.0.3, SVG Export Plug-In . SVG Version: 6.00 Build 0)  -->
<!DOCTYPE svg PUBLIC "-//W3C//DTD SVG 1.1//EN" "http://www.w3.org/Graphics/SVG/1.1/DTD/svg11.dtd">
<svg version="1.1" id="Layer_1" xmlns="http://www.w3.org/2000/svg" xmlns:xlink="http://www.w3.org/1999/xlink" x="0px" y="0px"
	 width="112.833px" height="25.833px" viewBox="0 0 112.833 25.833" enable-background="new 0 0 112.833 25.833"
	 xml:space="preserve">
<g>
	<path fill="#666666" d="M7.304,7.663c1.18-1.4,1.81-2.9,1.89-4.5h-8.13v-2.73h9.6c1.56,0,2.31,0.72,2.25,2.16
		c-0.101,2.86-1.17,5.31-3.21,7.35c-2.36,2.34-5.44,3.701-9.24,4.08v-2.7C3.363,10.863,5.643,9.643,7.304,7.663z M24.343,21.583
		h-16.2v0.33c0,0.859,0.54,1.29,1.62,1.29h14.64v2.73H9.343c-3.18,0-4.77-1.46-4.77-4.38v-2.64h16.2v-1.53h-16.2v-2.7h19.02
		c0.5,0,0.75,0.25,0.75,0.75V21.583z M20.833,0.223h3.51v13.05h-3.51v-5.19h-2.37v5.19h-3.45V0.223h3.45v5.07h2.37V0.223z"/>
	<path fill="#666666" d="M42.883,1.993v9.63h-9.48v4.02c0,1.44,0.65,2.16,1.95,2.16h9.57v2.79h-10.32c-3.18,0-4.77-1.58-4.77-4.74
		v-6.99h9.48v-5.43h-9.48v-2.79h11.7C42.433,0.643,42.883,1.093,42.883,1.993z M49.483,0.223h3.57v25.8h-3.57v-14.55h-4.86v-2.88
		h4.86V0.223z"/>
	<path fill="#666666" d="M72.253,1.993v9.63h-10.05v4.02c0,1.44,0.65,2.16,1.95,2.16h7.5c3.84,0,5.76-1.39,5.76-4.17V0.223h3.6
		v25.77h-3.6v-7.05c-0.92,1.1-2.64,1.65-5.16,1.65h-8.85c-3.18,0-4.77-1.58-4.77-4.74v-6.99h10.05v-5.43h-10.05v-2.79h12.27
		C71.803,0.643,72.253,1.093,72.253,1.993z"/>
	<path fill="#666666" d="M86.413,10.483c0-3.16,0.665-5.65,1.995-7.47c1.33-1.82,3.235-2.73,5.715-2.73
		c2.479,0,4.385,0.91,5.715,2.73s1.995,4.31,1.995,7.47c0,3.161-0.665,5.65-1.995,7.47s-3.235,2.73-5.715,2.73
		c-2.48,0-4.385-0.91-5.715-2.73C87.077,16.133,86.413,13.644,86.413,10.483z M89.982,10.513c0,2.42,0.34,4.255,1.02,5.505
		c0.68,1.25,1.71,1.875,3.09,1.875c1.4,0,2.445-0.625,3.135-1.875c0.69-1.25,1.035-3.085,1.035-5.505c0-2.44-0.345-4.29-1.035-5.55
		c-0.69-1.26-1.735-1.89-3.135-1.89c-1.38,0-2.41,0.63-3.09,1.89C90.322,6.223,89.982,8.073,89.982,10.513z M112.692,11.683h-3.84
		v14.31h-3.57V0.223h3.57v8.58h3.84V11.683z"/>
</g>
</svg>
