<?xml version="1.0" encoding="utf-8"?>
<!-- Generator: Adobe Illustrator 16.0.3, SVG Export Plug-In . SVG Version: 6.00 Build 0)  -->
<!DOCTYPE svg PUBLIC "-//W3C//DTD SVG 1.1//EN" "http://www.w3.org/Graphics/SVG/1.1/DTD/svg11.dtd">
<svg version="1.1" id="레이어_1" xmlns="http://www.w3.org/2000/svg" xmlns:xlink="http://www.w3.org/1999/xlink" x="0px"
	 y="0px" width="166.326px" height="38.828px" viewBox="0 0 166.326 38.828" enable-background="new 0 0 166.326 38.828"
	 xml:space="preserve">
<g>
	<path fill="#FFFFFF" d="M10.105,11.165c1.678-2,2.574-4.074,2.692-6.222H0.883V0.31h14.872c2.412,0.029,3.575,1.191,3.486,3.486
		c-0.118,4.236-1.721,7.899-4.811,10.988c-3.56,3.53-8.37,5.589-14.43,6.178v-4.545C4.383,15.711,7.752,13.961,10.105,11.165z
		 M36.363,32.305h-23.83v0.396c0,0.91,0.794,1.367,2.383,1.367h21.536v4.635h-23.08c-4.884,0-7.326-2.266-7.326-6.797v-4.148h23.831
		v-1.633H6.045v-4.588h29.171c0.765,0,1.147,0.396,1.147,1.191V32.305z M30.229,0h6.134v19.904h-6.134v-7.547h-2.515v7.547h-6.046V0
		h6.046v7.547h2.515V0z"/>
	<path fill="#FFFFFF" d="M63.547,2.692v14.96H49.69v5.34c0,1.912,0.957,2.869,2.869,2.869h14.078v4.986H50.618
		c-4.943,0-7.414-2.441-7.414-7.326V12.709h13.857V5.604H43.204V0.618H61.43C62.842,0.618,63.547,1.31,63.547,2.692z M72.109,0
		h6.486v38.834h-6.486V17.432H65.4v-5.119h6.709V0z"/>
	<path fill="#FFFFFF" d="M113.192,29.127c-1.471,1.146-3.75,1.721-6.842,1.721h-13.5c-4.854,0-7.281-2.44-7.281-7.326V12.709h14.783
		V5.604H85.567V0.618h19.152c1.41,0,2.119,0.691,2.119,2.074v14.96H92.056v5.34c0,1.912,0.897,2.869,2.69,2.869h10.899
		c3.943,0,6.459-1.207,7.547-3.619V0h6.531v38.791h-6.531V29.127z"/>
	<path fill="#FFFFFF" d="M126.433,15.533c0-4.706,1.022-8.457,3.067-11.252c2.043-2.794,5.008-4.193,8.894-4.193
		c3.883,0,6.846,1.398,8.891,4.193c2.045,2.795,3.068,6.546,3.068,11.252c0,4.708-1.023,8.459-3.068,11.256
		c-2.045,2.795-5.008,4.191-8.891,4.191c-3.886,0-6.851-1.396-8.894-4.191C127.455,23.992,126.433,20.241,126.433,15.533z
		 M132.92,15.578c0,3.502,0.47,6.113,1.412,7.834c0.94,1.721,2.278,2.582,4.017,2.582c1.766,0,3.125-0.861,4.082-2.582
		s1.434-4.332,1.434-7.834c0-3.53-0.477-6.163-1.434-7.898c-0.957-1.736-2.316-2.604-4.082-2.604c-1.736,0-3.074,0.868-4.017,2.604
		C133.39,9.416,132.92,12.048,132.92,15.578z M166.326,17.74h-5.647v21.051h-6.488V0h6.488v12.621h5.647V17.74z"/>
</g>
</svg>
