<?xml version="1.0" encoding="utf-8"?>
<!-- Generator: Adobe Illustrator 24.0.1, SVG Export Plug-In . SVG Version: 6.00 Build 0)  -->
<svg version="1.1" id="Layer_1" xmlns="http://www.w3.org/2000/svg" xmlns:xlink="http://www.w3.org/1999/xlink" x="0px" y="0px"
	 viewBox="0 0 136.33 23.06" style="enable-background:new 0 0 136.33 23.06;" xml:space="preserve">
<g>
	<path d="M20.82,0.06v22.98h-3.6V10.92H3.6v12.12H0V0.06h3.6v7.71h13.62V0.06H20.82z"/>
	<path d="M29.46,23.04c-1.68,0-3.03-0.45-3.99-1.41c-1.02-0.93-1.5-2.13-1.5-3.63v-1.23c0-1.5,0.48-2.7,1.5-3.66
		c0.96-0.96,2.31-1.44,3.99-1.44h9.39v-0.09c0-1.83-1.02-2.76-3.03-2.76H25.38V5.76h10.38c2.16,0,3.81,0.57,4.95,1.65
		c1.14,1.08,1.74,2.61,1.74,4.62v6.09c0,1.56-0.54,2.79-1.59,3.69c-0.96,0.84-2.31,1.23-4.05,1.23H29.46z M36.03,14.73h-5.7
		c-1.86,0-2.76,0.78-2.76,2.34v0.57c0,1.56,0.9,2.31,2.76,2.31h5.7c1.86,0,2.82-0.75,2.82-2.31v-0.57
		C38.85,15.51,37.89,14.73,36.03,14.73z"/>
	<path d="M52.98,5.76h3.54c2.22,0,3.99,0.66,5.28,1.95c1.26,1.32,1.92,3.12,1.92,5.43v9.9h-3.6v-9.72c0-1.44-0.3-2.49-0.84-3.15
		c-0.72-0.84-1.71-1.29-3.03-1.29h-3.06c-1.29,0-2.28,0.45-3,1.29c-0.54,0.66-0.78,1.71-0.78,3.15v9.72h-3.6v-9.9
		c0-2.31,0.63-4.11,1.92-5.43C48.99,6.42,50.76,5.76,52.98,5.76z"/>
	<path d="M80.31,20.73c-1.29,1.56-2.88,2.31-4.77,2.31h-2.22c-2.01,0-3.6-0.63-4.77-1.89c-1.14-1.17-1.68-2.85-1.68-5.01V5.76h3.57
		v10.41c0,1.26,0.27,2.19,0.81,2.76c0.6,0.66,1.41,0.99,2.43,0.99h1.56c1.02,0,1.83-0.33,2.46-0.99c0.54-0.57,0.84-1.5,0.84-2.76
		V5.76h3.54v10.41c0,1.26,0.27,2.19,0.81,2.76c0.6,0.66,1.41,0.99,2.43,0.99h1.56c1.02,0,1.83-0.33,2.46-0.99
		c0.54-0.57,0.84-1.5,0.84-2.76V5.76h3.57v10.38c0,2.16-0.6,3.84-1.74,5.01c-1.2,1.26-2.79,1.89-4.8,1.89h-2.19
		C83.16,23.04,81.57,22.29,80.31,20.73z"/>
	<path d="M104.31,8.88c-1.29,0-2.28,0.45-3,1.29c-0.54,0.66-0.78,1.71-0.78,3.15v9.72h-3.6V0h3.6v6.81
		c1.02-0.69,2.22-1.05,3.57-1.05h3.54c2.22,0,3.99,0.66,5.28,1.95c1.26,1.32,1.92,3.12,1.92,5.43v9.9h-3.6v-9.72
		c0-1.44-0.3-2.49-0.84-3.15c-0.72-0.84-1.71-1.29-3.03-1.29H104.31z"/>
	<path d="M123.3,23.04c-1.68,0-3.03-0.45-3.99-1.41c-1.02-0.93-1.5-2.13-1.5-3.63v-1.23c0-1.5,0.48-2.7,1.5-3.66
		c0.96-0.96,2.31-1.44,3.99-1.44h9.39v-0.09c0-1.83-1.02-2.76-3.03-2.76h-10.44V5.76h10.38c2.16,0,3.81,0.57,4.95,1.65
		c1.14,1.08,1.74,2.61,1.74,4.62v6.09c0,1.56-0.54,2.79-1.59,3.69c-0.96,0.84-2.31,1.23-4.05,1.23H123.3z M129.87,14.73h-5.7
		c-1.86,0-2.76,0.78-2.76,2.34v0.57c0,1.56,0.9,2.31,2.76,2.31h5.7c1.86,0,2.82-0.75,2.82-2.31v-0.57
		C132.69,15.51,131.73,14.73,129.87,14.73z"/>
</g>
</svg>
