<?xml version="1.0" encoding="utf-8"?>
<!-- Generator: Adobe Illustrator 24.0.1, SVG Export Plug-In . SVG Version: 6.00 Build 0)  -->
<svg version="1.1" id="Layer_1" xmlns="http://www.w3.org/2000/svg" xmlns:xlink="http://www.w3.org/1999/xlink" x="0px" y="0px"
	 viewBox="0 0 142.91 26.16" style="enable-background:new 0 0 142.91 26.16;" xml:space="preserve">
<g>
	<path d="M16.14,6.12H0V3.54h16.14V6.12z M8.07,17.46c-2.04,0-3.72-0.51-4.98-1.56c-1.29-1.02-1.92-2.25-1.92-3.69
		c0-1.41,0.63-2.64,1.92-3.69C4.35,7.5,6.03,6.99,8.07,6.99s3.69,0.51,4.98,1.53c1.26,1.05,1.92,2.28,1.92,3.69
		c0,1.44-0.66,2.67-1.92,3.69C11.76,16.95,10.11,17.46,8.07,17.46z M9.3,23.4h13.95v2.76H8.43c-3.21,0-4.8-1.47-4.8-4.47v-2.88h3.6
		v2.46C7.23,22.71,7.92,23.4,9.3,23.4z M3.93,0h8.28v2.61H3.93V0z M8.07,14.94c0.93,0,1.74-0.24,2.43-0.78
		c0.66-0.51,0.99-1.17,0.99-1.95c0-0.75-0.33-1.38-0.99-1.92C9.81,9.78,9,9.51,8.07,9.51c-0.96,0-1.74,0.27-2.4,0.78
		c-0.69,0.54-1.02,1.17-1.02,1.92c0,0.78,0.33,1.44,1.02,1.95C6.33,14.7,7.11,14.94,8.07,14.94z M23.13,7.05h3.72v2.82h-3.72v9.09
		h-3.57V0.45h3.57V7.05z"/>
	<path d="M36.21,17.31c-1.29-0.21-2.37-0.69-3.27-1.44c-1.26-1.02-1.86-2.22-1.86-3.66c0-1.41,0.63-2.64,1.92-3.69
		c1.26-1.02,2.94-1.53,4.98-1.53s3.69,0.51,4.98,1.53c1.26,1.05,1.92,2.28,1.92,3.69c0,1.44-0.63,2.64-1.86,3.66
		c-0.9,0.72-1.95,1.2-3.21,1.44v2.73h3.99c3.6,0,5.4-1.38,5.4-4.17V0.45h3.57v8.64h3.72v2.85h-3.72v14.28H49.2v-4.83
		c-1.08,0.96-2.7,1.44-4.8,1.44H29.28v-2.79h6.93V17.31z M45.99,6.12H29.85V3.54h16.14V6.12z M33.84,0h8.28v2.61h-8.28V0z
		 M37.98,14.94c0.93,0,1.74-0.24,2.43-0.78c0.66-0.51,0.99-1.17,0.99-1.95c0-0.75-0.33-1.38-0.99-1.92
		c-0.69-0.51-1.5-0.78-2.43-0.78c-0.96,0-1.74,0.27-2.4,0.78c-0.69,0.54-1.02,1.17-1.02,1.92c0,0.78,0.33,1.44,1.02,1.95
		C36.24,14.7,37.02,14.94,37.98,14.94z"/>
	<path d="M67.47,8.1c0.42-1.38,0.63-2.88,0.69-4.44H60V0.87h9.63c1.47,0,2.22,0.84,2.22,2.46c0,1.86-0.24,3.63-0.72,5.31h3.12V0.45
		h3.45v25.77h-3.45v-14.7h-4.23c-0.27,0.54-0.54,1.08-0.84,1.56c-2.1,3.51-5.37,6.24-9.78,8.16v-2.91c3.06-1.86,5.4-4.35,6.99-7.5
		H60V8.1H67.47z M79.83,0.45h3.51v25.77h-3.51V0.45z"/>
	<path d="M103.14,2.82v17.4h-9.63c-3.18,0-4.77-1.56-4.77-4.74V0.87h12.45C102.48,0.87,103.14,1.53,103.14,2.82z M99.63,3.66h-7.35
		v11.61c0,1.44,0.63,2.16,1.95,2.16h5.4V3.66z M107.55,26.22V0.45h3.6v25.77H107.55z"/>
	<path d="M126.96,5.46c0.3-0.69,0.51-1.41,0.6-2.16h-10.29V0.57h12.03c1.5,0,2.22,0.96,2.1,2.82c-0.18,2.82-1.5,5.22-3.93,7.2
		c-2.73,2.22-6.33,3.39-10.83,3.54v-2.7c3.57-0.27,6.36-1.38,8.34-3.3h-7.71V5.46H126.96z M138.84,21.81H123v0.33
		c0,0.87,0.54,1.29,1.62,1.29h14.28v2.73h-14.7c-3.18,0-4.77-1.44-4.77-4.38v-2.64h15.84v-1.53h-15.84v-2.7h18.66
		c0.48,0,0.75,0.27,0.75,0.75V21.81z M138.84,5.55h3.99v2.79h-3.99v5.16h-3.57V0.45h3.57V5.55z"/>
</g>
</svg>
