<?xml version="1.0" encoding="utf-8"?>
<!-- Generator: Adobe Illustrator 16.0.0, SVG Export Plug-In . SVG Version: 6.00 Build 0)  -->
<!DOCTYPE svg PUBLIC "-//W3C//DTD SVG 1.1//EN" "http://www.w3.org/Graphics/SVG/1.1/DTD/svg11.dtd">
<svg version="1.1" id="레이어_1" xmlns="http://www.w3.org/2000/svg" xmlns:xlink="http://www.w3.org/1999/xlink" viewBox="0 0 112.777 26.506" enable-background="new 0 0 112.777 26.506"
	 xml:space="preserve">
<g fill="#666">
	<path d="M16.352,6.657h-6c0.031,1.68,0.75,3.12,2.131,4.35c1.351,1.2,2.909,1.89,4.681,2.07v2.7
		c-2.642-0.119-5.011-1.02-7.11-2.64c-0.57-0.42-1.05-0.9-1.47-1.41c-0.42,0.51-0.931,0.99-1.47,1.41
		c-2.1,1.62-4.471,2.521-7.109,2.64v-2.7c1.739-0.18,3.3-0.87,4.679-2.07c1.38-1.23,2.07-2.67,2.13-4.35H0.514v-2.73h15.838V6.657z
		 M4.113,0.028h8.938v2.73H4.113V0.028z M24.271,19.137v7.05H9.003c-2.88,0-4.29-1.29-4.29-3.87v-5.1h17.58
		C23.611,17.217,24.271,17.877,24.271,19.137 M20.702,19.945H8.283v2.102c0,0.96,0.479,1.41,1.47,1.41h10.949V19.945z
		 M20.702,10.737h-5.459v-2.79h5.459V0.478h3.569v15.449h-3.569V10.737z"/>
	<path d="M48.662,14.337c-0.93,1.109-2.64,1.649-5.159,1.649h-8.55c-3.18,0-4.771-1.56-4.771-4.739
		V0.897h13.11v2.729h-9.571v7.47c0,1.44,0.631,2.16,1.95,2.16h7.23c3.84,0,5.76-1.38,5.76-4.17V0.478h3.57v6.569h3.778v2.85h-3.778
		v9.09h-3.57V14.337z M38.732,23.396h13.949v2.79H37.863c-3.21,0-4.8-1.47-4.8-4.47v-3.99h3.6v3.54
		C36.663,22.707,37.353,23.396,38.732,23.396"/>
	<path d="M84.752,20.727v2.85h-26.31v-2.85h11.311v-5.34h3.659v5.34H84.752z M73.412,1.647
		c0,3.78,1.021,6.6,3.119,8.52c1.921,1.799,4.109,2.759,6.511,2.909v2.76c-3.301-0.091-6.21-1.17-8.79-3.21
		c-1.08-0.839-1.98-1.89-2.641-3.089c-0.72,1.199-1.59,2.25-2.67,3.089c-2.58,2.041-5.519,3.12-8.789,3.21v-2.76
		c2.4-0.15,4.561-1.11,6.51-2.909c2.069-1.92,3.119-4.74,3.119-8.52v-0.81h3.631V1.647z"/>
	<path d="M92.973,4.828V3.687h-4.92V0.897h13.259v2.789h-4.89v1.141c0,4.17,0.569,7.289,1.771,9.389
		c0.899,1.649,2.099,2.88,3.599,3.689v3.03c-2.519-0.93-4.559-2.521-6.119-4.74c-0.359-0.51-0.689-1.08-0.961-1.68
		c-0.3,0.6-0.63,1.17-0.988,1.68c-1.562,2.22-3.602,3.811-6.12,4.74v-3.03c1.47-0.81,2.67-2.04,3.599-3.689
		C92.371,12.117,92.973,8.998,92.973,4.828 M109.262,0.478h3.51v25.769h-3.51v-14.28h-2.521v14.28h-3.45V0.478h3.45v8.64h2.521
		V0.478z"/>
</g>
</svg>
