<?xml version="1.0" encoding="utf-8"?>
<!-- Generator: Adobe Illustrator 16.0.0, SVG Export Plug-In . SVG Version: 6.00 Build 0)  -->
<!DOCTYPE svg PUBLIC "-//W3C//DTD SVG 1.1//EN" "http://www.w3.org/Graphics/SVG/1.1/DTD/svg11.dtd">
<svg version="1.1" id="레이어_1" xmlns="http://www.w3.org/2000/svg" xmlns:xlink="http://www.w3.org/1999/xlink" viewBox="0 0 83.598 26.478" enable-background="new 0 0 83.598 26.478"
	 xml:space="preserve">
<g fill="#666">
	<path d="M8.187,8.099c0.42-1.38,0.63-2.88,0.69-4.44h-8.16V0.87h9.63c1.47,0,2.22,0.84,2.22,2.46
		c0,1.86-0.239,3.63-0.72,5.309h3.12V0.45h3.449v25.768h-3.449V11.519h-4.23c-0.27,0.54-0.539,1.08-0.839,1.56
		c-2.101,3.51-5.37,6.24-9.78,8.16v-2.91c3.06-1.859,5.399-4.35,6.989-7.5h-6.39v-2.73H8.187z M20.546,0.45h3.511v25.769h-3.511
		V0.45z"/>
	<path d="M43.856,2.819v17.4h-9.63c-3.18,0-4.77-1.561-4.77-4.74V0.87h12.449
		C43.196,0.87,43.856,1.529,43.856,2.819 M40.347,3.659h-7.35v11.61c0,1.44,0.63,2.16,1.949,2.16h5.4V3.659z M48.267,0.45h3.601
		v25.769h-3.601V0.45z"/>
	<path d="M67.676,5.459c0.3-0.69,0.51-1.41,0.601-2.16h-10.29v-2.73h12.029c1.5,0,2.22,0.96,2.101,2.82
		c-0.181,2.82-1.5,5.22-3.931,7.2c-2.729,2.22-6.329,3.391-10.829,3.54v-2.7c3.57-0.27,6.359-1.38,8.34-3.3h-7.71v-2.67H67.676z
		 M79.556,21.809h-15.84v0.33c0,0.87,0.54,1.29,1.62,1.29h14.279v2.729H64.916c-3.18,0-4.77-1.44-4.77-4.38v-2.64h15.839V17.61
		H60.146v-2.701h18.659c0.479,0,0.75,0.27,0.75,0.75V21.809z M79.556,5.549h3.989v2.79h-3.989v5.16h-3.57V0.45h3.57V5.549z"/>
</g>
</svg>
