<?xml version="1.0" encoding="utf-8"?>
<!-- Generator: Adobe Illustrator 16.0.0, SVG Export Plug-In . SVG Version: 6.00 Build 0)  -->
<!DOCTYPE svg PUBLIC "-//W3C//DTD SVG 1.1//EN" "http://www.w3.org/Graphics/SVG/1.1/DTD/svg11.dtd">
<svg version="1.1" id="레이어_1" xmlns="http://www.w3.org/2000/svg" xmlns:xlink="http://www.w3.org/1999/xlink" viewBox="0 0 54.394 26.506"
	 xml:space="preserve">
<g fill="#666">
	<path d="M26.312,18.326h-6.569v7.92h-3.601v-7.92h-6.028v7.92H6.512v-7.92H0.004v-2.85h26.308V18.326z
		 M2.613,7.677h16.828v-1.83c0-1.44-0.75-2.19-2.22-2.19H2.613v-2.79h15.898c3,0,4.531,1.53,4.531,4.53v8.819h-3.602v-3.779H2.613
		V7.677z"/>
	<path d="M38.102,1.588c0,3.209,0.602,5.519,1.861,6.899c1.02,1.17,2.219,1.86,3.54,2.1v2.82
		c-2.281-0.3-4.23-1.2-5.911-2.76c-0.479-0.42-0.87-0.9-1.229-1.47c-0.36,0.57-0.78,1.05-1.231,1.47
		c-1.679,1.56-3.66,2.46-5.91,2.76v-2.82c1.321-0.24,2.491-0.93,3.54-2.1c1.231-1.38,1.861-3.69,1.861-6.899V0.807h3.479V1.588z
		 M54.332,21.837H38.043v0.33c0,0.87,0.54,1.29,1.62,1.29h14.728v2.729H39.243c-3.182,0-4.771-1.44-4.771-4.38v-2.64h16.29v-1.53
		h-16.29v-2.7h19.11c0.479,0,0.75,0.271,0.75,0.75V21.837z M45.242,0.478h3.45v13.049h-3.45v-6.21h-4.141v-2.79h4.141V0.478z
		 M50.822,0.478h3.51v13.049h-3.51V0.478z"/>
</g>
</svg>
