<?xml version="1.0" encoding="utf-8"?>
<!-- Generator: Adobe Illustrator 24.0.1, SVG Export Plug-In . SVG Version: 6.00 Build 0)  -->
<svg version="1.1" id="Layer_1" xmlns="http://www.w3.org/2000/svg" xmlns:xlink="http://www.w3.org/1999/xlink" x="0px" y="0px"
	 viewBox="0 0 191.52 35.91" style="enable-background:new 0 0 191.52 35.91;" xml:space="preserve">
<g fill="#ff6600">
	<path d="M22.66,9H0.03v-4h22.64V9z M11.34,24.04c-2.96,0-5.32-0.68-7.08-2.04c-1.8-1.36-2.68-3.04-2.68-5.04s0.88-3.68,2.68-5.08
		c1.76-1.36,4.12-2.04,7.08-2.04c2.96,0,5.32,0.68,7.12,2.04c1.76,1.4,2.64,3.08,2.64,5.08s-0.88,3.68-2.64,5.04
		C16.66,23.36,14.3,24.04,11.34,24.04z M13.54,31.56h18.6v4.24h-20.6c-4.48,0-6.68-2.08-6.68-6.28V25.4h5.92v3.32
		C10.79,30.64,11.71,31.56,13.54,31.56z M5.27,0.01h12.16v4.04H5.27V0.01z M11.34,20.28c1.08,0,2.04-0.28,2.84-0.92
		c0.76-0.6,1.16-1.4,1.16-2.4c0-0.96-0.4-1.8-1.16-2.44c-0.8-0.6-1.76-0.92-2.84-0.92c-1.12,0-2.04,0.32-2.8,0.92
		c-0.8,0.64-1.2,1.48-1.2,2.44c0,1,0.4,1.8,1.2,2.4C9.31,20,10.23,20.28,11.34,20.28z M31.98,9.52h4.96v4.56h-4.96V26.2H26.1V0.73
		h5.88V9.52z"/>
	<path d="M48.3,23.8c-1.76-0.32-3.2-0.92-4.32-1.84c-1.76-1.36-2.6-3-2.6-5s0.88-3.68,2.68-5.08c1.76-1.36,4.12-2.04,7.08-2.04
		s5.32,0.68,7.12,2.04c1.76,1.4,2.64,3.08,2.64,5.08s-0.88,3.64-2.6,5c-1.12,0.88-2.48,1.48-4.08,1.8v3.2h4.84
		c4.32,0,6.52-1.72,6.56-5.24v-21h5.88v11.64h4.96v4.36H71.5v19.16h-5.88v-6.12c-1.24,1-3.16,1.48-5.72,1.48H39.07v-4.28h9.24V23.8z
		 M62.46,9H39.83v-4h22.64V9z M45.15,0.01H57.3v4.04H45.15V0.01z M51.14,20.28c1.08,0,2.04-0.28,2.84-0.92
		c0.76-0.6,1.16-1.4,1.16-2.4c0-0.96-0.4-1.8-1.16-2.44c-0.8-0.6-1.76-0.92-2.84-0.92c-1.12,0-2.04,0.32-2.8,0.92
		c-0.8,0.64-1.2,1.48-1.2,2.44c0,1,0.4,1.8,1.2,2.4C49.11,20,50.02,20.28,51.14,20.28z"/>
	<path d="M99.66,11.6v3.68h15.12v4.04H78.59v-4.04h15.08V11.6H99.66z M99.66,0.85c0,2.52,1.28,4.56,3.84,6.16
		c2.4,1.52,5.32,2.32,8.84,2.4v4.04c-4.44,0-8.48-0.96-12.16-2.92C98.78,9.8,97.62,8.96,96.66,8c-0.96,0.96-2.12,1.8-3.48,2.52
		c-3.68,1.96-7.76,2.92-12.16,2.92V9.4c3.48-0.08,6.44-0.88,8.84-2.4c2.56-1.6,3.84-3.64,3.84-6.16V0.73h5.96V0.85z M82.79,29.96
		v-3.52h21.88v-1.4H82.79v-3.92h26.72c0.68,0,1.04,0.36,1.04,1.08v8.12H88.66v0.28c0,0.84,0.72,1.24,2.16,1.24h19.8v3.96h-21.2
		C84.99,35.8,82.79,33.88,82.79,29.96z"/>
	<path d="M154.3,26.4h-15.12v9.48h-6V26.4h-15.08v-4.6h36.19V26.4z M121.83,13.64v-5.8h22.44V5.57h-22.44V1.13h26.44
		c1.24,0,1.88,0.64,1.88,1.92v9.2H127.7v1.16c0,0.96,0.72,1.44,2.16,1.44h20.64v4.44h-22.28C123.94,19.28,121.83,17.4,121.83,13.64z
		"/>
	<path d="M171.82,1.25v1.92c0,5.44,1.08,9.4,3.24,11.88c1.6,1.88,3.48,3.12,5.68,3.76v4.52c-3.72-0.68-6.92-2.32-9.56-4.92
		c-0.88-0.84-1.64-1.8-2.28-2.88c-0.64,1.08-1.4,2.04-2.28,2.88c-2.68,2.6-5.88,4.24-9.56,4.92V18.8c2.16-0.64,4.08-1.88,5.68-3.76
		c2.16-2.48,3.24-6.44,3.24-11.88V1.25H171.82z M172.9,31.36h18.6v4.44h-20.6c-4.48,0-6.68-2.08-6.68-6.32v-5.6h5.92v4.64
		C170.14,30.44,171.06,31.36,172.9,31.36z M185.22,0.73h5.88V26.2h-5.88v-9.92h-8v-4.44h8V9.28h-8V4.84h8V0.73z"/>
</g>
</svg>
