<?xml version="1.0" encoding="utf-8"?>
<!-- Generator: Adobe Illustrator 16.0.3, SVG Export Plug-In . SVG Version: 6.00 Build 0)  -->
<!DOCTYPE svg PUBLIC "-//W3C//DTD SVG 1.1//EN" "http://www.w3.org/Graphics/SVG/1.1/DTD/svg11.dtd">
<svg version="1.1" id="Layer_1" xmlns="http://www.w3.org/2000/svg" xmlns:xlink="http://www.w3.org/1999/xlink" x="0px" y="0px"
	 width="113.833px" height="26.167px" viewBox="0 0 113.833 26.167" enable-background="new 0 0 113.833 26.167"
	 xml:space="preserve">
<g enable-background="new    ">
	<path fill="#666666" d="M23.34,14.984h-8.22v5.489h11.34v2.851H0.15v-2.851h11.31v-5.489H7.83c-3.34,0-5.01-1.471-5.01-4.41v-9.69
		H23.1v2.79H6.42v6.75c0,1.181,0.59,1.771,1.77,1.771h15.15V14.984z"/>
	<path fill="#666666" d="M39.75,4.423c0,4.38,0.71,7.59,2.13,9.63c1.219,1.74,2.74,2.95,4.56,3.63v2.851
		c-2.72-0.56-5.05-1.98-6.99-4.26c-0.56-0.66-1.05-1.42-1.47-2.28c-0.42,0.86-0.91,1.62-1.47,2.28c-1.94,2.279-4.271,3.7-6.99,4.26
		v-2.851c1.84-0.68,3.36-1.89,4.56-3.63c1.42-2.04,2.13-5.25,2.13-9.63v-3.81h3.54V4.423z M49.62,25.994V0.223h3.6v25.771H49.62z"/>
	<path fill="#666666" d="M65.01,10.633c1.119-2.119,1.759-4.52,1.92-7.2h-8.16v-2.79h9.629c1.5,0,2.24,0.82,2.221,2.46
		c-0.041,3.54-0.95,6.74-2.73,9.601c-2.279,3.68-5.52,6.29-9.72,7.83v-2.91C61.149,15.944,63.429,13.614,65.01,10.633z M78.6,0.223
		h3.51v25.771H78.6v-14.28H76.08v14.28h-3.45V0.223h3.45v8.641H78.6V0.223z"/>
	<path fill="#666666" d="M102.179,13.064h-9.63c-3.18,0-4.77-1.381-4.77-4.141v-8.49h3.539v3.42h7.351v-3.42h3.51V13.064z
		 M109.919,21.583h-15.99v0.33c0,0.859,0.54,1.29,1.62,1.29h14.43v2.729h-14.85c-3.18,0-4.77-1.46-4.77-4.38v-2.64h15.989v-1.53
		H90.36v-2.7h18.81c0.499,0,0.75,0.251,0.75,0.75V21.583z M98.669,10.364v-3.84h-7.351v1.949c0,1.261,0.65,1.891,1.951,1.891H98.669
		z M109.919,5.324h3.78v2.79h-3.78v5.16h-3.57V0.223h3.57V5.324z"/>
</g>
</svg>
