<?xml version="1.0" encoding="utf-8"?>
<!-- Generator: Adobe Illustrator 16.0.0, SVG Export Plug-In . SVG Version: 6.00 Build 0)  -->
<!DOCTYPE svg PUBLIC "-//W3C//DTD SVG 1.1//EN" "http://www.w3.org/Graphics/SVG/1.1/DTD/svg11.dtd">
<svg version="1.1" id="레이어_1" xmlns="http://www.w3.org/2000/svg" xmlns:xlink="http://www.w3.org/1999/xlink" x="0px"
	 y="0px" width="77px" height="20px" viewBox="0 0 77 20" enable-background="new 0 0 77 20" xml:space="preserve">
<g>
	<defs>
		<rect id="SVGID_1_" width="77" height="20"/>
	</defs>
	<clipPath id="SVGID_2_">
		<use xlink:href="#SVGID_1_"  overflow="visible"/>
	</clipPath>
	<path clip-path="url(#SVGID_2_)" fill="#FFFFFF" d="M12.283,5.558H8.302c0.08,1.04,0.52,1.94,1.341,2.661
		c0.839,0.76,1.9,1.2,3.18,1.32v2.081c-2.041-0.08-3.781-0.7-5.221-1.82c-0.3-0.22-0.56-0.46-0.781-0.721
		c-0.239,0.261-0.5,0.501-0.779,0.721c-1.44,1.12-3.181,1.74-5.222,1.82V9.539c1.261-0.12,2.321-0.56,3.181-1.32
		c0.8-0.721,1.261-1.621,1.341-2.661H1.16V3.457h11.123V5.558z M3.56,0.737h6.521v2.101H3.56V0.737z M17.564,13.68v4.921H6.941
		c-2,0-2.98-0.9-2.98-2.7v-3.562h12.223C17.103,12.339,17.564,12.799,17.564,13.68 M14.623,14.439H6.901v1.24
		c0,0.561,0.301,0.82,0.921,0.82h6.801V14.439z M14.623,8.259h-3.44V6.078h3.44V1.057h2.941v10.542h-2.941V8.259z"/>
	<path clip-path="url(#SVGID_2_)" fill="#FFFFFF" d="M33.263,10.979c-0.72,0.521-1.741,0.78-3.101,0.78h-5.921
		c-2.2,0-3.301-1.08-3.301-3.261V1.337h9.302v2.181h-6.381v4.701c0,0.92,0.4,1.36,1.22,1.36h4.941c1.68,0,2.761-0.56,3.241-1.68
		V1.057h2.94v4.381h2.521v2.3h-2.521V13.8h-2.94V10.979z M27.201,16.38h9.303v2.221H26.201c-2.24,0-3.341-1.04-3.341-3.161v-2.8
		h2.961v2.32C25.821,15.92,26.281,16.38,27.201,16.38"/>
	<path clip-path="url(#SVGID_2_)" fill="#FFFFFF" d="M57.885,14.56v2.301H39.78V14.56h7.541v-3.44h3.001v3.44H57.885z M50.322,1.857
		c0,2.601,0.66,4.501,2.021,5.741c1.239,1.14,2.699,1.76,4.399,1.88v2.221c-2.46-0.061-4.581-0.801-6.341-2.2
		c-0.62-0.481-1.141-1.061-1.56-1.721c-0.481,0.7-1,1.28-1.581,1.721c-1.78,1.399-3.901,2.139-6.342,2.2V9.479
		c1.681-0.12,3.161-0.74,4.401-1.88c1.34-1.24,2.021-3.14,2.021-5.741V1.296h2.979V1.857z"/>
	<path clip-path="url(#SVGID_2_)" fill="#FFFFFF" d="M62.801,4.018v-0.42H59.52V1.336h9.282v2.261h-3.261v0.42
		c0,2.9,0.38,5.041,1.16,6.401c0.601,1.08,1.4,1.86,2.421,2.36v2.461c-1.94-0.7-3.441-1.82-4.521-3.341
		c-0.16-0.221-0.32-0.46-0.44-0.721c-0.14,0.261-0.279,0.5-0.44,0.721c-1.079,1.521-2.58,2.641-4.501,3.341v-2.461
		c1-0.5,1.801-1.28,2.401-2.36C62.4,9.059,62.801,6.917,62.801,4.018 M73.782,1.057h2.781v17.584h-2.781V9.119h-1.24v9.522h-2.74
		V1.057h2.74v5.762h1.24V1.057z"/>
</g>
</svg>
