<?xml version="1.0" encoding="utf-8"?>
<!-- Generator: Adobe Illustrator 16.0.0, SVG Export Plug-In . SVG Version: 6.00 Build 0)  -->
<!DOCTYPE svg PUBLIC "-//W3C//DTD SVG 1.1//EN" "http://www.w3.org/Graphics/SVG/1.1/DTD/svg11.dtd">
<svg version="1.1" id="레이어_1" xmlns="http://www.w3.org/2000/svg" xmlns:xlink="http://www.w3.org/1999/xlink" x="0px"
	 y="0px" width="31px" height="16px" viewBox="0 0 31 16" enable-background="new 0 0 31 16" xml:space="preserve">
<g>
	<defs>
		<rect id="SVGID_1_" width="31" height="16"/>
	</defs>
	<clipPath id="SVGID_2_">
		<use xlink:href="#SVGID_1_"  overflow="visible"/>
	</clipPath>
	<path clip-path="url(#SVGID_2_)" fill="#FFFFFF" d="M14.918,10.527h-3.505v4.226H9.492v-4.226H6.274v4.226h-1.92v-4.226H0.88V9.006
		h14.038V10.527z M2.273,4.845h8.979V3.868c0-0.768-0.399-1.168-1.184-1.168H2.273V1.211h8.483c1.601,0,2.417,0.817,2.417,2.417
		v4.706h-1.921V6.318H2.273V4.845z"/>
	<path clip-path="url(#SVGID_2_)" fill="#FFFFFF" d="M21.202,1.596c0,1.712,0.32,2.944,0.992,3.68
		c0.544,0.625,1.185,0.994,1.889,1.121v1.504c-1.216-0.159-2.257-0.639-3.153-1.471c-0.256-0.225-0.465-0.481-0.656-0.785
		c-0.191,0.304-0.416,0.56-0.656,0.785c-0.896,0.832-1.952,1.312-3.153,1.471V6.397c0.704-0.127,1.328-0.496,1.889-1.121
		c0.656-0.736,0.992-1.968,0.992-3.68V1.179h1.857V1.596z M29.861,12.399H21.17v0.177c0,0.464,0.288,0.688,0.864,0.688h7.859v1.457
		H21.81c-1.696,0-2.545-0.769-2.545-2.337v-1.409h8.692v-0.815h-8.692V8.718h10.196c0.256,0,0.4,0.145,0.4,0.4V12.399z
		 M25.011,1.003h1.841v6.963h-1.841V4.652h-2.209V3.164h2.209V1.003z M27.989,1.003h1.873v6.963h-1.873V1.003z"/>
</g>
</svg>
