<?xml version="1.0" encoding="utf-8"?>
<!-- Generator: Adobe Illustrator 16.0.0, SVG Export Plug-In . SVG Version: 6.00 Build 0)  -->
<!DOCTYPE svg PUBLIC "-//W3C//DTD SVG 1.1//EN" "http://www.w3.org/Graphics/SVG/1.1/DTD/svg11.dtd">
<svg version="1.1" id="레이어_1" xmlns="http://www.w3.org/2000/svg" xmlns:xlink="http://www.w3.org/1999/xlink" x="0px"
	 y="0px" width="38px" height="20px" viewBox="0 0 38 20" enable-background="new 0 0 38 20" xml:space="preserve">
<g>
	<defs>
		<rect id="SVGID_1_" width="38" height="20"/>
	</defs>
	<clipPath id="SVGID_2_">
		<use xlink:href="#SVGID_1_"  overflow="visible"/>
	</clipPath>
	<path clip-path="url(#SVGID_2_)" fill="#FFFFFF" d="M18.923,13.399h-4.381v5.241h-2.96v-5.241h-3.46v5.241H5.162v-5.241H0.82
		v-2.301h18.103V13.399z M2.561,5.857h11.223V5.039c0-0.961-0.5-1.461-1.481-1.461H2.561V1.316h11.043
		c2.08,0,3.141,1.061,3.141,3.161v5.981h-2.961v-2.36H2.561V5.857z"/>
	<path clip-path="url(#SVGID_2_)" fill="#FFFFFF" d="M26.661,1.817c0,2.241,0.4,3.821,1.2,4.721c0.641,0.72,1.44,1.16,2.401,1.3
		v2.201c-1.741-0.16-3.181-0.78-4.342-1.9c-0.239-0.221-0.46-0.461-0.64-0.741c-0.2,0.28-0.4,0.52-0.641,0.741
		c-1.16,1.12-2.619,1.74-4.341,1.9V7.838c0.94-0.14,1.74-0.58,2.4-1.3c0.801-0.9,1.201-2.48,1.201-4.721v-0.54h2.76V1.817z
		 M37.604,15.7H26.741v0.18c0,0.42,0.36,0.62,1.08,0.62h9.822v2.101H27.121c-2.22,0-3.32-1.021-3.32-3.081v-1.88h10.862v-0.74
		H23.801v-2.08h13.283c0.34,0,0.52,0.18,0.52,0.54V15.7z M31.042,1.057h2.741v9.022h-2.741V5.978h-2.601v-2.18h2.601V1.057z
		 M34.823,1.057h2.779v9.022h-2.779V1.057z"/>
</g>
</svg>
