<?xml version="1.0" encoding="utf-8"?>
<!-- Generator: Adobe Illustrator 16.0.0, SVG Export Plug-In . SVG Version: 6.00 Build 0)  -->
<!DOCTYPE svg PUBLIC "-//W3C//DTD SVG 1.1//EN" "http://www.w3.org/Graphics/SVG/1.1/DTD/svg11.dtd">
<svg version="1.1" id="레이어_1" xmlns="http://www.w3.org/2000/svg" xmlns:xlink="http://www.w3.org/1999/xlink" x="0px"
	 y="0px" width="162.907px" height="39.471px" viewBox="0 0 162.907 39.471" enable-background="new 0 0 162.907 39.471"
	 xml:space="preserve">
<g>
	<defs>
		<rect id="SVGID_1_" width="162.907" height="39.471"/>
	</defs>
	<clipPath id="SVGID_2_">
		<use xlink:href="#SVGID_1_"  overflow="visible"/>
	</clipPath>
	<path clip-path="url(#SVGID_2_)" fill="#FF6600" d="M25.539,10.779h-8.757c0.176,2.288,1.144,4.269,2.948,5.853
		c1.849,1.672,4.181,2.641,6.997,2.905v4.577c-4.489-0.176-8.317-1.541-11.485-4.005c-0.66-0.484-1.232-1.012-1.716-1.584
		c-0.528,0.572-1.1,1.1-1.716,1.584c-3.168,2.464-6.997,3.829-11.486,4.005v-4.577c2.772-0.264,5.105-1.232,6.997-2.905
		c1.76-1.584,2.772-3.564,2.948-5.853H1.071V6.158h24.468V10.779z M6.352,0.173h14.346v4.621H6.352V0.173z M37.156,28.646v10.825
		H13.789c-4.4,0-6.557-1.98-6.557-5.941v-7.833H34.12C36.144,25.697,37.156,26.709,37.156,28.646z M30.687,30.317H13.701v2.729
		c0,1.232,0.66,1.805,2.024,1.805h14.962V30.317z M30.687,16.72h-7.569v-4.797h7.569V0.877h6.469v23.191h-6.469V16.72z"/>
	<path clip-path="url(#SVGID_2_)" fill="#FF6600" d="M70.375,22.705c-1.584,1.144-3.829,1.716-6.821,1.716H50.527
		c-4.84,0-7.261-2.376-7.261-7.173V1.493h20.463V6.29H49.691v10.341c0,2.024,0.88,2.993,2.685,2.993h10.87
		c3.696,0,6.073-1.232,7.129-3.697V0.877h6.469v9.637h5.545v5.061h-5.545v13.334h-6.469V22.705z M57.041,34.586h20.463v4.885H54.84
		c-4.929,0-7.349-2.288-7.349-6.953v-6.161h6.513v5.105C54.004,33.574,55.016,34.586,57.041,34.586z"/>
	<path clip-path="url(#SVGID_2_)" fill="#FF6600" d="M123.22,30.582v5.061H83.395v-5.061h16.59v-7.569h6.602v7.569H123.22z
		 M106.586,2.638c0,5.721,1.452,9.901,4.444,12.63c2.729,2.508,5.94,3.872,9.682,4.136v4.885c-5.413-0.132-10.078-1.76-13.95-4.841
		c-1.364-1.056-2.509-2.332-3.433-3.784c-1.057,1.54-2.2,2.816-3.477,3.784c-3.917,3.081-8.581,4.709-13.95,4.841v-4.885
		c3.696-0.264,6.953-1.628,9.682-4.136c2.948-2.729,4.444-6.909,4.444-12.63V1.405h6.558V2.638z"/>
	<path clip-path="url(#SVGID_2_)" fill="#FF6600" d="M132.719,7.39V6.466h-7.217V1.493h20.418v4.973h-7.173V7.39
		c0,6.381,0.837,11.09,2.553,14.082c1.32,2.376,3.08,4.093,5.325,5.193v5.413c-4.27-1.54-7.569-4.004-9.946-7.349
		c-0.352-0.484-0.704-1.012-0.968-1.584c-0.308,0.572-0.616,1.1-0.968,1.584c-2.377,3.345-5.677,5.809-9.901,7.349v-5.413
		c2.2-1.1,3.96-2.816,5.28-5.193C131.838,18.48,132.719,13.771,132.719,7.39z M156.878,0.877h6.117v38.681h-6.117V18.612h-2.729
		v20.947h-6.028V0.877h6.028v12.674h2.729V0.877z"/>
</g>
</svg>
