<?xml version="1.0" encoding="utf-8"?>
<!-- Generator: Adobe Illustrator 24.0.1, SVG Export Plug-In . SVG Version: 6.00 Build 0)  -->
<svg version="1.1" id="Layer_1" xmlns="http://www.w3.org/2000/svg" xmlns:xlink="http://www.w3.org/1999/xlink" x="0px" y="0px"
	 viewBox="0 0 208.63 34.03" style="enable-background:new 0 0 208.63 34.03;" xml:space="preserve">
<style type="text/css">
	.st0{fill:#ff6600;}
</style>
<g>
	<path class="st0" d="M30.78,0.09V4.7H11.16c-3.61,0-5.41,1.28-5.41,3.81v2.3c0,2.53,1.76,3.77,5.37,3.77h10.54
		c3.51,0,6.17,0.75,7.98,2.22c1.9,1.55,2.85,3.54,2.85,5.98v3.15c0,2.44-0.95,4.43-2.85,5.94c-1.8,1.46-4.46,2.17-8.03,2.17H1.38
		v-4.61h19.95c3.61,0,5.41-1.24,5.41-3.77v-2.7c0-2.53-1.8-3.81-5.41-3.81H10.78c-3.56,0-6.22-0.71-7.98-2.17
		C0.9,15.47,0,13.47,0,11.03V8.29C0,5.85,0.9,3.85,2.8,2.3c1.76-1.46,4.42-2.22,7.98-2.22H30.78z"/>
	<path class="st0" d="M55.38,34.03h-8.41c-3.42,0-6.08-0.93-7.98-2.75c-1.95-1.77-2.9-4.3-2.9-7.62v-4.74c0-3.32,0.95-5.89,2.9-7.67
		c1.9-1.77,4.56-2.7,7.98-2.75h8.41c3.42,0.04,6.08,0.97,8.03,2.75c1.9,1.77,2.9,4.34,2.9,7.67v4.74c0,3.32-1,5.85-2.9,7.62
		C61.46,33.1,58.8,34.03,55.38,34.03z M54.95,29.42c1.99,0,3.51-0.58,4.46-1.73c0.76-0.97,1.19-2.39,1.19-4.3v-4.17
		c0-1.91-0.43-3.37-1.19-4.34c-0.95-1.15-2.47-1.77-4.46-1.77h-7.6c-1.99,0-3.47,0.62-4.42,1.77c-0.76,0.97-1.14,2.44-1.14,4.34
		v4.17c0,1.91,0.38,3.32,1.14,4.3c0.95,1.15,2.42,1.73,4.42,1.73H54.95z"/>
	<path class="st0" d="M70.38,34.03V0h5.79v34.03H70.38z"/>
	<path class="st0" d="M91.71,34.03c-3.51,0-6.32-0.93-8.31-2.88c-2.04-1.86-3.04-4.52-3.04-7.93V8.51h5.7v14.4
		c0,2.13,0.38,3.68,1.23,4.65c1.14,1.24,2.71,1.86,4.75,1.86h4.84c2.09,0,3.66-0.62,4.8-1.86c0.85-0.98,1.33-2.53,1.33-4.65V8.51
		h5.7v14.71c0,3.41-1.04,6.07-3.04,7.93c-2.04,1.95-4.84,2.88-8.36,2.88H91.71z"/>
	<path class="st0" d="M125.24,8.51h8.55v4.48h-8.55v21.05h-5.75V12.98h-8.55V8.51h8.55V2.75h5.75V8.51z"/>
	<path class="st0" d="M143.23,3.37c0,0.97-0.38,1.77-1.09,2.35c-0.76,0.62-1.66,0.89-2.71,0.89c-1.04,0-1.9-0.27-2.56-0.89
		c-0.76-0.58-1.09-1.37-1.09-2.35c0-0.98,0.33-1.77,1.09-2.39c0.66-0.58,1.52-0.89,2.56-0.89c1.04,0,1.95,0.31,2.71,0.89
		C142.85,1.6,143.23,2.39,143.23,3.37z M136.58,34.03V8.51h5.79v25.52H136.58z"/>
	<path class="st0" d="M165.75,34.03h-8.41c-3.42,0-6.08-0.93-7.98-2.75c-1.95-1.77-2.9-4.3-2.9-7.62v-4.74
		c0-3.32,0.95-5.89,2.9-7.67c1.9-1.77,4.56-2.7,7.98-2.75h8.41c3.42,0.04,6.08,0.97,8.03,2.75c1.9,1.77,2.9,4.34,2.9,7.67v4.74
		c0,3.32-1,5.85-2.9,7.62C171.83,33.1,169.17,34.03,165.75,34.03z M165.32,29.42c1.99,0,3.51-0.58,4.46-1.73
		c0.76-0.97,1.19-2.39,1.19-4.3v-4.17c0-1.91-0.43-3.37-1.19-4.34c-0.95-1.15-2.47-1.77-4.46-1.77h-7.6c-1.99,0-3.47,0.62-4.42,1.77
		c-0.76,0.97-1.14,2.44-1.14,4.34v4.17c0,1.91,0.38,3.32,1.14,4.3c0.95,1.15,2.42,1.73,4.42,1.73H165.32z"/>
	<path class="st0" d="M191.63,8.51h5.6c3.51,0,6.32,0.97,8.36,2.88c1.99,1.95,3.04,4.61,3.04,8.02v14.62h-5.7V19.67
		c0-2.13-0.48-3.68-1.33-4.65c-1.14-1.24-2.71-1.91-4.8-1.91h-4.84c-2.04,0-3.61,0.66-4.75,1.91c-0.85,0.97-1.23,2.53-1.23,4.65
		v14.36h-5.7V19.41c0-3.41,1-6.07,3.04-8.02C185.31,9.48,188.11,8.51,191.63,8.51z"/>
</g>
</svg>
