<?xml version="1.0" encoding="utf-8"?>
<!-- Generator: Adobe Illustrator 16.0.3, SVG Export Plug-In . SVG Version: 6.00 Build 0)  -->
<!DOCTYPE svg PUBLIC "-//W3C//DTD SVG 1.1//EN" "http://www.w3.org/Graphics/SVG/1.1/DTD/svg11.dtd">
<svg version="1.1" id="Layer_1" xmlns="http://www.w3.org/2000/svg" xmlns:xlink="http://www.w3.org/1999/xlink" x="0px" y="0px"
	 width="107.417px" height="25.083px" viewBox="0 0 107.417 25.083" enable-background="new 0 0 107.417 25.083"
	 xml:space="preserve">
<g>
	<path fill="#333333" d="M22.951,14.67h-7.672v4.563h10.584v3.22H0.523v-3.22h10.556V14.67H7.887c-3.248,0-4.872-1.428-4.872-4.284
		V0.95h19.712v3.164H7.159v5.852c0,1.027,0.55,1.54,1.652,1.54h14.14V14.67z"/>
	<path fill="#333333" d="M38.267,0.698v3.64c0,4.219,0.653,7.262,1.96,9.127c1.101,1.568,2.529,2.643,4.284,3.221v3.191
		c-2.968-0.541-5.386-1.922-7.252-4.144c-0.374-0.448-0.719-0.942-1.036-1.483c-0.318,0.541-0.663,1.035-1.036,1.483
		c-1.867,2.222-4.284,3.603-7.252,4.144v-3.191c1.754-0.578,3.183-1.652,4.284-3.221c1.306-1.866,1.96-4.909,1.96-9.127v-3.64
		H38.267z M46.695,24.946V0.334h4.143v24.612H46.695z"/>
	<path fill="#333333" d="M61.059,10.218c1.025-1.941,1.613-4.05,1.764-6.328h-7.588V0.726h9.463c1.475,0,2.203,0.859,2.184,2.576
		c-0.018,3.342-0.867,6.366-2.547,9.072c-2.166,3.491-5.387,6.039-9.661,7.644v-3.305C57.475,15.127,59.602,12.962,61.059,10.218z
		 M73.911,0.334h3.891v24.612h-3.891V11.618h-1.736v13.328h-3.836V0.334h3.836v8.064h1.736V0.334z"/>
	<path fill="#333333" d="M96.534,12.71h-9.52c-3.137,0-4.705-1.334-4.705-4.004V0.53h4.09v3.192h6.074V0.53h4.061V12.71z
		 M103.758,20.831H88.834v0.252c0,0.578,0.504,0.867,1.512,0.867h13.469v2.939H89.366c-3.098,0-4.648-1.438-4.648-4.311v-2.633
		h14.924v-1.035H84.717v-2.912h18.313c0.486,0,0.729,0.252,0.729,0.756V20.831z M92.473,9.798V6.606h-6.074v1.652
		c0,1.027,0.541,1.54,1.623,1.54H92.473z M103.758,5.094h3.527v3.164h-3.527v4.704h-4.117V0.334h4.117V5.094z"/>
</g>
</svg>
