<?xml version="1.0" encoding="utf-8"?>
<!-- Generator: Adobe Illustrator 16.0.0, SVG Export Plug-In . SVG Version: 6.00 Build 0)  -->
<!DOCTYPE svg PUBLIC "-//W3C//DTD SVG 1.1//EN" "http://www.w3.org/Graphics/SVG/1.1/DTD/svg11.dtd">
<svg version="1.1" id="레이어_1" xmlns="http://www.w3.org/2000/svg" xmlns:xlink="http://www.w3.org/1999/xlink" x="0px"
	 y="0px" width="32.775px" height="15.875px" viewBox="0 0 32.775 15.875" enable-background="new 0 0 32.775 15.875"
	 xml:space="preserve">
<g>
	<defs>
		<rect id="SVGID_1_" width="32.775" height="15.875"/>
	</defs>
	<clipPath id="SVGID_2_">
		<use xlink:href="#SVGID_1_"  overflow="visible"/>
	</clipPath>
	<g clip-path="url(#SVGID_2_)">
		<path fill="#FFFFFF" d="M16.468,11.143h-3.943v4.718H9.859v-4.718H6.745v4.718H4.08v-4.718H0.173v-2.07h16.295V11.143z
			 M1.739,4.354H11.84V3.616c0-0.864-0.449-1.314-1.332-1.314H1.739V0.268h9.938c1.873,0,2.827,0.954,2.827,2.845v5.384H11.84V6.371
			H1.739V4.354z"/>
		<path fill="#FFFFFF" d="M22.891,0.718c0,2.017,0.36,3.438,1.08,4.249c0.576,0.648,1.297,1.044,2.161,1.171v1.98
			c-1.566-0.145-2.863-0.702-3.907-1.711c-0.217-0.198-0.414-0.414-0.576-0.666c-0.181,0.252-0.36,0.468-0.576,0.666
			c-1.045,1.009-2.359,1.566-3.907,1.711v-1.98c0.846-0.127,1.566-0.522,2.16-1.171c0.721-0.811,1.081-2.232,1.081-4.249V0.231
			h2.484V0.718z M32.739,13.213h-9.776v0.162c0,0.379,0.324,0.559,0.972,0.559h8.841v1.891h-9.471c-1.999,0-2.989-0.918-2.989-2.772
			v-1.693h9.777v-0.666h-9.777V8.82h11.956c0.306,0,0.468,0.162,0.468,0.485V13.213z M26.834,0.033h2.467v8.12h-2.467v-3.69h-2.341
			V2.5h2.341V0.033z M30.236,0.033h2.503v8.12h-2.503V0.033z"/>
	</g>
</g>
</svg>
